<svg xmlns="http://www.w3.org/2000/svg" viewBox="0 0 24 24" data-testid="amex-icon">
  <title>American Express</title>
  <desc>American Express credit card</desc>
  <path fill="none" d="M0 0h24v24H0z" />
  <path
    fill="#006FCF"
    d="M2 6.8c0-.44.36-.8.8-.8h18.4c.44 0 .8.36.8.8v10.4a.8.8 0 01-.8.8H2.8a.8.8 0 01-.8-.8V6.8z"
  />
  <g fill="#FFF">
    <path
      d="M4.45 11.88h.73l.17-.4h.37l.16.4H7.3v-.3l.13.3h.75l.12-.3v.3h3.57v-.65h.06c.05 0 .07 0 .07.08v.57h1.84v-.15c.15.08.38.15.68.15h.78l.17-.4h.36l.17.4h1.49v-.38l.23.38h1.2V9.36h-1.2v.3l-.16-.3h-1.21v.3l-.16-.3h-1.64c-.27 0-.51.04-.71.15v-.15h-1.13v.15c-.13-.11-.3-.15-.49-.15H8.1l-.27.65-.29-.65h-1.3v.3l-.15-.3h-1.1l-.53 1.2-.59 1.32h.6zm14.1-.35h-.61l-.81-1.36v1.36h-.87l-.16-.4h-.89l-.16.4h-.5c-.2 0-.47-.05-.62-.2-.15-.15-.23-.36-.23-.7 0-.26.05-.5.23-.7.14-.14.36-.2.65-.2H15v.38h-.4c-.16 0-.24.02-.33.1-.07.08-.12.23-.12.42 0 .19.04.33.12.42.06.07.18.1.3.1h.18l.6-1.43H16l.72 1.71v-1.7h.65l.75 1.25V9.72h.43v1.8zm-5.06 0h-.43v-1.8h.43v1.8zm-.68-1.32a.5.5 0 01-.3.48c.1.04.17.1.21.15.06.1.07.17.07.33v.36h-.43v-.23c0-.1.01-.26-.07-.35-.06-.06-.15-.08-.3-.08h-.47v.66h-.42v-1.8h.98c.22 0 .38 0 .52.08.13.08.21.2.21.4zm-2 1.32H9.37v-1.8h1.42v.37h-1v.32h.98v.37H9.8v.37h1v.37zm-1.75 0h-.44V10.1L8 11.53h-.37L7 10.1v1.42h-.87l-.16-.4h-.9l-.16.4h-.46l.76-1.8h.64l.72 1.7v-1.7h.7l.56 1.22.5-1.23h.72v1.8zm6.89-.78l-.3-.72-.29.72h.59zm-3.7-.29c-.05.04-.12.04-.2.04h-.53v-.4h.53c.07 0 .15 0 .2.03.06.03.1.08.1.16s-.04.14-.1.17zm-6.43.29l-.29-.72-.29.72h.58zM14.14 13.36a.2.2 0 01-.1.17c-.05.04-.12.04-.2.04h-.52v-.4h.52c.08 0 .16 0 .2.03.06.03.1.08.1.16zm-1.9.03c0 .15-.11.23-.27.23h-.56v-.46h.56c.16 0 .26.07.26.23zm-1.9.3l.65-.7v1.44l-.66-.73zm-1.02-.53l.47.53-.5.53H8.26v-.36h.94v-.37h-.94v-.33h1.07zm10.23 1.26c-.1.12-.3.18-.53.18h-.82v-.4h.82c.08 0 .14 0 .17-.04a.16.16 0 00.05-.11c0-.06-.02-.1-.05-.12-.03-.03-.08-.04-.15-.04-.4-.02-.9.01-.9-.56 0-.26.16-.54.61-.54h.84v.38h-.77c-.07 0-.13 0-.17.04-.04.03-.06.07-.06.13 0 .07.04.11.1.13.04.02.09.02.16.02h.23c.23.01.39.05.48.15l.04.05-.01-.02a.6.6 0 01-.04.75zm-2.2.18h-.82v-.4h.82c.08 0 .14 0 .18-.04a.16.16 0 00.05-.11c0-.06-.02-.1-.05-.12-.04-.03-.08-.04-.16-.04-.4-.02-.9.01-.9-.56 0-.26.17-.54.62-.54h.85v.38h-.78c-.08 0-.13 0-.17.04-.05.03-.07.07-.07.13 0 .07.04.11.1.13.04.02.09.02.16.02h.23c.23.01.4.05.49.15.08.1.13.2.13.39 0 .39-.24.57-.67.57zm-1.08-1.44h-1v.33h.98v.37h-.98v.36h1v.38h-1.42v-1.81h1.42v.37zm-1.75.75c.06.09.06.17.07.33v.36h-.43v-.23c0-.1 0-.27-.07-.35-.06-.07-.16-.08-.31-.08h-.46v.66h-.43v-1.81h.99c.21 0 .37.01.5.09.14.08.23.2.23.4a.5.5 0 01-.3.48c.1.03.17.1.2.15zm-2.57.08h-.54v.6h-.82l-.53-.6-.55.6H7.82v-1.8h1.72l.52.6.55-.6h1.36c.34 0 .72.1.72.6s-.37.6-.74.6zm7.93-.4v-1.16h-1.07a.88.88 0 00-.53.15v-.15H17.1c-.19 0-.4.05-.51.15v-.15h-2.09v.15a1.1 1.1 0 00-.57-.15h-1.38v.15c-.13-.13-.42-.15-.6-.15h-1.54l-.35.39-.33-.39h-2.3v2.52H9.7l.36-.4.34.4h1.4v-.59h.13c.18 0 .4 0 .6-.09v.68h1.14v-.66h.06c.07 0 .07 0 .07.08v.58h3.49c.22 0 .45-.06.58-.16v.16h1.1c.24 0 .46-.03.63-.12a.9.9 0 00.28-1.24z"
    />
  </g>
</svg>
