<svg width="25" height="24" viewBox="0 0 25 24" fill="none" xmlns="http://www.w3.org/2000/svg" data-testid="applepay-icon">
<path d="M22.5499 4H2.84853C2.76648 4 2.68428 4 2.60237 4.00048C2.53313 4.00097 2.46406 4.00174 2.39498 4.00362C2.24433 4.0077 2.09239 4.01659 1.94362 4.04332C1.79248 4.07053 1.65183 4.1149 1.51462 4.18475C1.37973 4.25335 1.25623 4.34308 1.14921 4.45014C1.04215 4.55721 0.952423 4.6805 0.883839 4.81553C0.813966 4.95274 0.769568 5.09343 0.742555 5.24469C0.715674 5.3935 0.706726 5.54542 0.702666 5.69591C0.70081 5.76499 0.700014 5.83406 0.699563 5.90312C0.699085 5.98521 0.699244 6.06723 0.699244 6.14946V17.2153C0.699244 17.2975 0.699085 17.3794 0.699563 17.4616C0.700014 17.5307 0.70081 17.5998 0.702666 17.6688C0.706726 17.8192 0.715674 17.9711 0.742555 18.1199C0.769568 18.2712 0.813966 18.4118 0.883839 18.5491C0.952423 18.6841 1.04215 18.8076 1.14921 18.9145C1.25623 19.0217 1.37973 19.1114 1.51462 19.1798C1.65183 19.2499 1.79248 19.2943 1.94362 19.3214C2.09239 19.348 2.24433 19.3571 2.39498 19.3611C2.46406 19.3627 2.53313 19.3636 2.60237 19.3639C2.68428 19.3646 2.76648 19.3646 2.84853 19.3646H22.5499C22.6318 19.3646 22.714 19.3646 22.7959 19.3639C22.865 19.3636 22.9341 19.3627 23.0035 19.3611C23.1538 19.3571 23.3057 19.348 23.4549 19.3214C23.6058 19.2943 23.7465 19.2499 23.8837 19.1798C24.0187 19.1114 24.1419 19.0217 24.2491 18.9145C24.356 18.8076 24.4457 18.6841 24.5145 18.5491C24.5845 18.4118 24.6289 18.2712 24.6557 18.1199C24.6826 17.9711 24.6914 17.8192 24.6954 17.6688C24.6973 17.5998 24.6983 17.5307 24.6986 17.4616C24.6992 17.3794 24.6992 17.2975 24.6992 17.2153V6.14946C24.6992 6.06723 24.6992 5.98521 24.6986 5.90312C24.6983 5.83406 24.6973 5.76499 24.6954 5.69591C24.6914 5.54542 24.6826 5.3935 24.6557 5.24469C24.6289 5.09343 24.5845 4.95274 24.5145 4.81553C24.4457 4.6805 24.356 4.55721 24.2491 4.45014C24.1419 4.34308 24.0187 4.25335 23.8837 4.18475C23.7465 4.1149 23.6058 4.07053 23.4549 4.04332C23.3057 4.01659 23.1538 4.0077 23.0035 4.00362C22.9341 4.00174 22.865 4.00097 22.7959 4.00048C22.714 4 22.6318 4 22.5499 4Z" fill="black"/>
<path d="M22.5495 4.51221L22.7919 4.51267C22.8575 4.51314 22.9232 4.51385 22.9892 4.51564C23.104 4.51875 23.2384 4.52497 23.3636 4.54741C23.4724 4.56702 23.5637 4.59683 23.6513 4.64143C23.7378 4.68538 23.8171 4.74297 23.8863 4.81206C23.9557 4.88161 24.0134 4.96099 24.0579 5.04843C24.1023 5.13536 24.1319 5.22621 24.1514 5.33586C24.1738 5.45972 24.18 5.59442 24.1831 5.70997C24.1849 5.77519 24.1857 5.84041 24.1861 5.90718C24.1867 5.98792 24.1867 6.06863 24.1867 6.14954V17.2154C24.1867 17.2963 24.1867 17.3768 24.186 17.4593C24.1857 17.5245 24.1849 17.5897 24.1831 17.6551C24.18 17.7704 24.1738 17.9051 24.1511 18.0304C24.1319 18.1385 24.1023 18.2294 24.0577 18.3168C24.0133 18.404 23.9557 18.4833 23.8866 18.5524C23.817 18.622 23.738 18.6794 23.6505 18.7238C23.5635 18.7681 23.4724 18.7979 23.3646 18.8173C23.2369 18.8401 23.0969 18.8464 22.9915 18.8492C22.9252 18.8507 22.8592 18.8516 22.7915 18.8519C22.711 18.8525 22.6301 18.8525 22.5495 18.8525H2.84811C2.84704 18.8525 2.84599 18.8525 2.8449 18.8525C2.76524 18.8525 2.68542 18.8525 2.60431 18.8519C2.53818 18.8516 2.47219 18.8507 2.40839 18.8493C2.30057 18.8464 2.16052 18.8401 2.03381 18.8175C1.92511 18.7979 1.83397 18.7681 1.74587 18.7232C1.65918 18.6792 1.58026 18.6219 1.51065 18.5521C1.44157 18.4832 1.38417 18.4041 1.33978 18.3168C1.29535 18.2295 1.26563 18.1384 1.24609 18.0289C1.22349 17.9039 1.21729 17.7698 1.21419 17.6552C1.21242 17.5896 1.21168 17.524 1.21126 17.4587L1.21094 17.2662L1.21095 17.2154V6.14954L1.21094 6.0987L1.21124 5.90657C1.21168 5.84096 1.21242 5.77536 1.21419 5.70981C1.21729 5.5951 1.22349 5.46095 1.24627 5.33483C1.26564 5.22639 1.29535 5.13524 1.34001 5.04753C1.38405 4.96084 1.44155 4.8817 1.511 4.81228C1.58016 4.74309 1.65934 4.68556 1.74658 4.6412C1.83374 4.59681 1.92505 4.56702 2.03375 4.54746C2.159 4.52495 2.29342 4.51875 2.40855 4.51563C2.47418 4.51385 2.5398 4.51314 2.60494 4.51269L2.84811 4.51221H22.5495Z" fill="white"/>
<path d="M7.25048 9.1677C7.45598 8.91067 7.59542 8.56556 7.55865 8.21289C7.25783 8.22785 6.89074 8.41135 6.67822 8.66858C6.48739 8.88886 6.31849 9.24842 6.36252 9.58631C6.70021 9.6156 7.03758 9.41752 7.25048 9.1677Z" fill="black"/>
<path d="M7.55526 9.65235C7.06487 9.62314 6.64791 9.93067 6.41372 9.93067C6.17941 9.93067 5.82079 9.66707 5.43291 9.67417C4.92807 9.68159 4.45963 9.96703 4.20344 10.421C3.67651 11.3292 4.06438 12.6764 4.5768 13.4161C4.82564 13.782 5.12553 14.185 5.52069 14.1705C5.89405 14.1558 6.04039 13.9287 6.49422 13.9287C6.94772 13.9287 7.07954 14.1705 7.47476 14.1632C7.88462 14.1558 8.14085 13.797 8.38969 13.4307C8.67515 13.0136 8.79201 12.6108 8.79936 12.5887C8.79201 12.5813 8.00905 12.281 8.00179 11.3803C7.9944 10.6262 8.6165 10.2675 8.64578 10.2452C8.29447 9.72565 7.74556 9.66707 7.55526 9.65235Z" fill="black"/>
<path d="M11.8251 8.63159C12.891 8.63159 13.6332 9.3663 13.6332 10.436C13.6332 11.5095 12.8757 12.248 11.7984 12.248H10.6183V14.1247H9.76562V8.63159H11.8251V8.63159ZM10.6183 11.5323H11.5966C12.3389 11.5323 12.7614 11.1327 12.7614 10.4398C12.7614 9.74702 12.3389 9.3511 11.6004 9.3511H10.6183V11.5323Z" fill="black"/>
<path d="M13.8555 12.9864C13.8555 12.286 14.3922 11.8558 15.344 11.8025L16.4402 11.7378V11.4295C16.4402 10.9841 16.1395 10.7176 15.6371 10.7176C15.1611 10.7176 14.8642 10.946 14.792 11.3039H14.0154C14.0611 10.5805 14.6777 10.0476 15.6675 10.0476C16.6382 10.0476 17.2587 10.5615 17.2587 11.3647V14.1246H16.4706V13.4661H16.4517C16.2195 13.9115 15.7132 14.1931 15.1879 14.1931C14.4037 14.1931 13.8555 13.7059 13.8555 12.9864ZM16.4402 12.6248V12.3089L15.4543 12.3697C14.9632 12.404 14.6853 12.621 14.6853 12.9636C14.6853 13.3138 14.9746 13.5422 15.4162 13.5422C15.991 13.5422 16.4402 13.1463 16.4402 12.6248Z" fill="black"/>
<path d="M18.0033 15.5978V14.9316C18.0641 14.9468 18.2012 14.9468 18.2697 14.9468C18.6504 14.9468 18.856 14.787 18.9815 14.3758C18.9815 14.3682 19.0539 14.1322 19.0539 14.1284L17.6074 10.1199H18.4981L19.5108 13.3785H19.5259L20.5386 10.1199H21.4065L19.9066 14.3339C19.5641 15.3047 19.1682 15.6168 18.3383 15.6168C18.2697 15.6168 18.0641 15.6092 18.0033 15.5978Z" fill="black"/>
</svg>
