<svg width="25" height="24" viewBox="0 0 25 24" xmlns="http://www.w3.org/2000/svg">
<path d="M18.602 6.696L20.655 4.1169L22.7207 13.1141C17.6515 15.253 13.2801 13.3814 13.2801 13.3814L15.3642 10.7629C13.489 9.00394 12.1819 8.29826 9.1662 8.11353C6.61847 7.9573 4.23013 8.54568 2.26795 9.64836C2.26502 9.65015 2.26181 9.65167 2.25875 9.65312L2.2558 9.65454C2.26595 9.64014 2.27638 9.62692 2.28679 9.61371C2.2963 9.60164 2.3058 9.58958 2.31508 9.57666C2.78012 8.92226 3.25341 8.341 3.73302 7.82148C9.6395 1.41812 15.716 4.51817 18.602 6.696Z" />
<path d="M6.37479 18.2404L4.32173 20.8196L2.25605 11.8224C7.32526 9.68349 11.6967 11.555 11.6967 11.555L9.61254 14.1735C11.4877 15.9325 12.7949 16.6382 15.8106 16.8229C18.3583 16.9792 20.7466 16.3908 22.7088 15.2881C22.7127 15.2857 22.7171 15.2838 22.721 15.2819C22.7108 15.2963 22.7004 15.3095 22.69 15.3227C22.6805 15.3348 22.671 15.3469 22.6617 15.3598C22.1967 16.0142 21.7234 16.5954 21.2437 17.115C15.3373 23.5183 9.26072 20.4183 6.37479 18.2404Z" />
</svg>
