<svg width="112" height="36" viewBox="0 0 112 36" fill="none" xmlns="http://www.w3.org/2000/svg">
<path d="M0 18C0 8.05888 8.05887 0 18 0H94C103.941 0 112 8.05888 112 18C112 27.9411 103.941 36 94 36H18C8.05887 36 0 27.9411 0 18Z" fill="white"/>
<path d="M26.979 13.5799L28.651 11.4307L30.3333 18.9283C26.2049 20.7107 22.6449 19.1511 22.6449 19.1511L24.3422 16.969C22.815 15.5032 21.7505 14.9151 19.2945 14.7612C17.2197 14.631 15.2746 15.1213 13.6766 16.0402C13.6743 16.0417 13.6716 16.043 13.6691 16.0442L13.6667 16.0454C13.675 16.0334 13.6835 16.0224 13.692 16.0113C13.6997 16.0013 13.7075 15.9912 13.715 15.9805C14.0937 15.4351 14.4792 14.9508 14.8698 14.5178C19.68 9.18169 24.6287 11.7651 26.979 13.5799Z" fill="#031657"/>
<path d="M17.0212 23.2003L15.3492 25.3495L13.667 17.8519C17.7953 16.0695 21.3554 17.6291 21.3554 17.6291L19.658 19.8112C21.1852 21.277 22.2497 21.8651 24.7057 22.019C26.7805 22.1492 28.7256 21.6589 30.3236 20.74C30.3267 20.738 30.3303 20.7364 30.3335 20.7348C30.3252 20.7468 30.3167 20.7579 30.3082 20.7689C30.3005 20.7789 30.2927 20.789 30.2852 20.7997C29.9065 21.3451 29.521 21.8295 29.1304 22.2624C24.3202 27.5985 19.3715 25.0151 17.0212 23.2003Z" fill="#031657"/>
<path d="M41.5312 12.6328L37.7656 23H36.2266L40.5625 11.625H41.5547L41.5312 12.6328ZM44.6875 23L40.9141 12.6328L40.8906 11.625H41.8828L46.2344 23H44.6875ZM44.4922 18.7891V20.0234H38.1016V18.7891H44.4922ZM52.6172 21.0469V14.5469H54.0703V23H52.6875L52.6172 21.0469ZM52.8906 19.2656L53.4922 19.25C53.4922 19.8125 53.4323 20.3333 53.3125 20.8125C53.1979 21.2865 53.0104 21.6979 52.75 22.0469C52.4896 22.3958 52.1484 22.6693 51.7266 22.8672C51.3047 23.0599 50.7917 23.1562 50.1875 23.1562C49.776 23.1562 49.3984 23.0964 49.0547 22.9766C48.7161 22.8568 48.4245 22.6719 48.1797 22.4219C47.9349 22.1719 47.7448 21.8464 47.6094 21.4453C47.4792 21.0443 47.4141 20.5625 47.4141 20V14.5469H48.8594V20.0156C48.8594 20.3958 48.901 20.7109 48.9844 20.9609C49.0729 21.2057 49.1901 21.401 49.3359 21.5469C49.487 21.6875 49.6536 21.7865 49.8359 21.8438C50.0234 21.901 50.2161 21.9297 50.4141 21.9297C51.0286 21.9297 51.5156 21.8125 51.875 21.5781C52.2344 21.3385 52.4922 21.0182 52.6484 20.6172C52.8099 20.2109 52.8906 19.7604 52.8906 19.2656ZM59.8125 14.5469V15.6562H55.2422V14.5469H59.8125ZM56.7891 12.4922H58.2344V20.9062C58.2344 21.1927 58.2786 21.4089 58.3672 21.5547C58.4557 21.7005 58.5703 21.7969 58.7109 21.8438C58.8516 21.8906 59.0026 21.9141 59.1641 21.9141C59.2839 21.9141 59.4089 21.9036 59.5391 21.8828C59.6745 21.8568 59.776 21.8359 59.8438 21.8203L59.8516 23C59.737 23.0365 59.5859 23.0703 59.3984 23.1016C59.2161 23.138 58.9948 23.1562 58.7344 23.1562C58.3802 23.1562 58.0547 23.0859 57.7578 22.9453C57.4609 22.8047 57.224 22.5703 57.0469 22.2422C56.875 21.9089 56.7891 21.4609 56.7891 20.8984V12.4922ZM60.9688 18.8672V18.6875C60.9688 18.0781 61.0573 17.513 61.2344 16.9922C61.4115 16.4661 61.6667 16.0104 62 15.625C62.3333 15.2344 62.737 14.9323 63.2109 14.7188C63.6849 14.5 64.2161 14.3906 64.8047 14.3906C65.3984 14.3906 65.9323 14.5 66.4062 14.7188C66.8854 14.9323 67.2917 15.2344 67.625 15.625C67.9635 16.0104 68.2214 16.4661 68.3984 16.9922C68.5755 17.513 68.6641 18.0781 68.6641 18.6875V18.8672C68.6641 19.4766 68.5755 20.0417 68.3984 20.5625C68.2214 21.0833 67.9635 21.5391 67.625 21.9297C67.2917 22.3151 66.888 22.6172 66.4141 22.8359C65.9453 23.0495 65.4141 23.1562 64.8203 23.1562C64.2266 23.1562 63.6927 23.0495 63.2188 22.8359C62.7448 22.6172 62.3385 22.3151 62 21.9297C61.6667 21.5391 61.4115 21.0833 61.2344 20.5625C61.0573 20.0417 60.9688 19.4766 60.9688 18.8672ZM62.4141 18.6875V18.8672C62.4141 19.2891 62.4635 19.6875 62.5625 20.0625C62.6615 20.4323 62.8099 20.7604 63.0078 21.0469C63.2109 21.3333 63.4635 21.5599 63.7656 21.7266C64.0677 21.888 64.4193 21.9688 64.8203 21.9688C65.2161 21.9688 65.5625 21.888 65.8594 21.7266C66.1615 21.5599 66.4115 21.3333 66.6094 21.0469C66.8073 20.7604 66.9557 20.4323 67.0547 20.0625C67.1589 19.6875 67.2109 19.2891 67.2109 18.8672V18.6875C67.2109 18.2708 67.1589 17.8776 67.0547 17.5078C66.9557 17.1328 66.8047 16.8021 66.6016 16.5156C66.4036 16.224 66.1536 15.9948 65.8516 15.8281C65.5547 15.6615 65.2057 15.5781 64.8047 15.5781C64.4089 15.5781 64.0599 15.6615 63.7578 15.8281C63.4609 15.9948 63.2109 16.224 63.0078 16.5156C62.8099 16.8021 62.6615 17.1328 62.5625 17.5078C62.4635 17.8776 62.4141 18.2708 62.4141 18.6875ZM75.3984 20.7578C75.3984 20.5495 75.3516 20.3568 75.2578 20.1797C75.1693 19.9974 74.9844 19.8333 74.7031 19.6875C74.4271 19.5365 74.0104 19.4062 73.4531 19.2969C72.9844 19.1979 72.5599 19.0807 72.1797 18.9453C71.8047 18.8099 71.4844 18.6458 71.2188 18.4531C70.9583 18.2604 70.7578 18.0339 70.6172 17.7734C70.4766 17.513 70.4062 17.2083 70.4062 16.8594C70.4062 16.526 70.4792 16.2109 70.625 15.9141C70.776 15.6172 70.987 15.3542 71.2578 15.125C71.5339 14.8958 71.8646 14.7161 72.25 14.5859C72.6354 14.4557 73.0651 14.3906 73.5391 14.3906C74.2161 14.3906 74.7943 14.5104 75.2734 14.75C75.7526 14.9896 76.1198 15.3099 76.375 15.7109C76.6302 16.1068 76.7578 16.5469 76.7578 17.0312H75.3125C75.3125 16.7969 75.2422 16.5703 75.1016 16.3516C74.9661 16.1276 74.7656 15.9427 74.5 15.7969C74.2396 15.651 73.9193 15.5781 73.5391 15.5781C73.138 15.5781 72.8125 15.6406 72.5625 15.7656C72.3177 15.8854 72.138 16.0391 72.0234 16.2266C71.9141 16.4141 71.8594 16.612 71.8594 16.8203C71.8594 16.9766 71.8854 17.1172 71.9375 17.2422C71.9948 17.362 72.0938 17.474 72.2344 17.5781C72.375 17.6771 72.5729 17.7708 72.8281 17.8594C73.0833 17.9479 73.4089 18.0365 73.8047 18.125C74.4974 18.2812 75.0677 18.4688 75.5156 18.6875C75.9635 18.9062 76.2969 19.1745 76.5156 19.4922C76.7344 19.8099 76.8438 20.1953 76.8438 20.6484C76.8438 21.0182 76.7656 21.3568 76.6094 21.6641C76.4583 21.9714 76.237 22.237 75.9453 22.4609C75.6589 22.6797 75.3151 22.8516 74.9141 22.9766C74.5182 23.0964 74.0729 23.1562 73.5781 23.1562C72.8333 23.1562 72.2031 23.0234 71.6875 22.7578C71.1719 22.4922 70.7812 22.1484 70.5156 21.7266C70.25 21.3047 70.1172 20.8594 70.1172 20.3906H71.5703C71.5911 20.7865 71.7057 21.1016 71.9141 21.3359C72.1224 21.5651 72.3776 21.7292 72.6797 21.8281C72.9818 21.9219 73.2812 21.9688 73.5781 21.9688C73.974 21.9688 74.3047 21.9167 74.5703 21.8125C74.8411 21.7083 75.0469 21.5651 75.1875 21.3828C75.3281 21.2005 75.3984 20.9922 75.3984 20.7578ZM80.1875 11V23H78.7422V11H80.1875ZM79.8438 18.4531L79.2422 18.4297C79.2474 17.8516 79.3333 17.3177 79.5 16.8281C79.6667 16.3333 79.901 15.9036 80.2031 15.5391C80.5052 15.1745 80.8646 14.8932 81.2812 14.6953C81.7031 14.4922 82.1693 14.3906 82.6797 14.3906C83.0964 14.3906 83.4714 14.4479 83.8047 14.5625C84.138 14.6719 84.4219 14.849 84.6562 15.0938C84.8958 15.3385 85.0781 15.6562 85.2031 16.0469C85.3281 16.4323 85.3906 16.9036 85.3906 17.4609V23H83.9375V17.4453C83.9375 17.0026 83.8724 16.6484 83.7422 16.3828C83.612 16.112 83.4219 15.9167 83.1719 15.7969C82.9219 15.6719 82.6146 15.6094 82.25 15.6094C81.8906 15.6094 81.5625 15.6849 81.2656 15.8359C80.974 15.987 80.7214 16.1953 80.5078 16.4609C80.2995 16.7266 80.1354 17.0312 80.0156 17.375C79.901 17.7135 79.8438 18.0729 79.8438 18.4531ZM89.125 14.5469V23H87.6719V14.5469H89.125ZM87.5625 12.3047C87.5625 12.0703 87.6328 11.8724 87.7734 11.7109C87.9193 11.5495 88.1328 11.4688 88.4141 11.4688C88.6901 11.4688 88.901 11.5495 89.0469 11.7109C89.1979 11.8724 89.2734 12.0703 89.2734 12.3047C89.2734 12.5286 89.1979 12.7214 89.0469 12.8828C88.901 13.0391 88.6901 13.1172 88.4141 13.1172C88.1328 13.1172 87.9193 13.0391 87.7734 12.8828C87.6328 12.7214 87.5625 12.5286 87.5625 12.3047ZM92.8906 16.1719V26.25H91.4375V14.5469H92.7656L92.8906 16.1719ZM98.5859 18.7031V18.8672C98.5859 19.4818 98.513 20.0521 98.3672 20.5781C98.2214 21.099 98.0078 21.5521 97.7266 21.9375C97.4505 22.3229 97.1094 22.6224 96.7031 22.8359C96.2969 23.0495 95.8307 23.1562 95.3047 23.1562C94.7682 23.1562 94.2943 23.0677 93.8828 22.8906C93.4714 22.7135 93.1224 22.4557 92.8359 22.1172C92.5495 21.7786 92.3203 21.3724 92.1484 20.8984C91.9818 20.4245 91.8672 19.8906 91.8047 19.2969V18.4219C91.8672 17.7969 91.9844 17.237 92.1562 16.7422C92.3281 16.2474 92.5547 15.8255 92.8359 15.4766C93.1224 15.1224 93.4688 14.8542 93.875 14.6719C94.2812 14.4844 94.75 14.3906 95.2812 14.3906C95.8125 14.3906 96.2839 14.4948 96.6953 14.7031C97.1068 14.9062 97.4531 15.1979 97.7344 15.5781C98.0156 15.9583 98.2266 16.4141 98.3672 16.9453C98.513 17.4714 98.5859 18.0573 98.5859 18.7031ZM97.1328 18.8672V18.7031C97.1328 18.2812 97.0885 17.8854 97 17.5156C96.9115 17.1406 96.7734 16.8125 96.5859 16.5312C96.4036 16.2448 96.1693 16.0208 95.8828 15.8594C95.5964 15.6927 95.2552 15.6094 94.8594 15.6094C94.4948 15.6094 94.1771 15.6719 93.9062 15.7969C93.6406 15.9219 93.4141 16.0911 93.2266 16.3047C93.0391 16.513 92.8854 16.7526 92.7656 17.0234C92.651 17.2891 92.5651 17.5651 92.5078 17.8516V19.875C92.612 20.2396 92.7578 20.5833 92.9453 20.9062C93.1328 21.224 93.3828 21.4818 93.6953 21.6797C94.0078 21.8724 94.401 21.9688 94.875 21.9688C95.2656 21.9688 95.6016 21.888 95.8828 21.7266C96.1693 21.5599 96.4036 21.3333 96.5859 21.0469C96.7734 20.7604 96.9115 20.4323 97 20.0625C97.0885 19.6875 97.1328 19.2891 97.1328 18.8672Z" fill="#031657"/>
<path d="M18 1H94V-1H18V1ZM94 35H18V37H94V35ZM18 35C8.61116 35 1 27.3888 1 18H-1C-1 28.4934 7.50659 37 18 37V35ZM111 18C111 27.3888 103.389 35 94 35V37C104.493 37 113 28.4934 113 18H111ZM94 1C103.389 1 111 8.61116 111 18H113C113 7.50659 104.493 -1 94 -1V1ZM18 -1C7.50659 -1 -1 7.50659 -1 18H1C1 8.61116 8.61116 1 18 1V-1Z" fill="#CCCCCC"/>
</svg>
