<?xml version="1.0" encoding="UTF-8"?>
<svg viewBox="0 0 24 24" version="1.1" xmlns="http://www.w3.org/2000/svg" xmlns:xlink="http://www.w3.org/1999/xlink">
  <g stroke="none" stroke-width="1" fill-rule="evenodd">
    <g id="Group" transform="translate(2.000000, 4.000000)">
      <path
        d="M17.2352091,0.26341963 L15.3120228,2.73556757 C12.6086373,0.648056899 6.91646088,-2.3234367 1.38360171,3.81437269 C0.934327169,4.31235277 0.490970128,4.86950782 0.0553513514,5.49676245 C0.03714367,5.52270839 0.0180256046,5.5450128 -0.000182076814,5.57141394 C0.00345945946,5.56959317 0.00755618777,5.5677724 0.011197724,5.56549644 C1.84926316,4.50854054 4.08653201,3.94455761 6.47310384,4.09431579 C9.2980256,4.27138549 10.5224922,4.94780085 12.2790782,6.63383215 L10.3267596,9.14376102 C10.3267596,9.14376102 14.4216671,10.9376728 19.1702304,8.88748791 L17.2352091,0.26341963 Z"
        fill="#18499B"></path>
      <path
        d="M1.93502134,16.2734682 L3.85820768,13.8013203 C6.56159317,15.8888309 12.2537696,18.8603245 17.7866287,12.7225152 C18.2359033,12.2245351 18.6792603,11.66738 19.1148791,11.0401254 C19.1330868,11.0141795 19.1522048,10.991875 19.1704125,10.9654739 C19.166771,10.9672947 19.1626743,10.9691154 19.1590327,10.9713914 C17.3209673,12.0283473 15.0836984,12.5923302 12.6971266,12.4425721 C9.87220484,12.2655024 8.64773826,11.589087 6.8911522,9.9030557 L8.84347084,7.39312682 C8.84347084,7.39312682 4.7485633,5.59921501 -7.10542736e-15,7.64939993 L1.93502134,16.2734682 Z"
        fill="#F27123"></path>
    </g>
  </g>
</svg>
