<svg id="Layer_1" data-name="Layer 1" xmlns="http://www.w3.org/2000/svg" viewBox="0 0 104 21">
    <defs>
        <mask id="mask" x="74.23" y=".38" width="10.37" height="15.68" maskUnits="userSpaceOnUse">
            <g id="logo-autoship-b">
                <path id="logo-autoship-a" class="cls-1" d="M74.23.38H84.6v15.68H74.23V.38z"/>
            </g>
        </mask>
        <mask id="mask-2" x="0" y=".38" width="103.98" height="20.47" maskUnits="userSpaceOnUse">
            <g id="logo-autoship-d">
                <path id="logo-autoship-c" class="cls-1" d="M0 20.85h103.98V.38H0v20.47z"/>
            </g>
        </mask>
        <style>.cls-1{fill:#fff}.cls-2{fill:#18499b}.cls-4{mask:url(#mask-2)}</style>
    </defs>
    <path class="cls-2"
          d="M39.8 11.19a2.27 2.27 0 01-.39 1.33 1.21 1.21 0 01-1.06.51 1.06 1.06 0 01-.58-.13.85.85 0 01-.34-.36 1.67 1.67 0 01-.2-.57 6.06 6.06 0 010-.76V5.53H33.3V12a6.37 6.37 0 00.19 1.57 4 4 0 00.67 1.4 3.57 3.57 0 001.22 1 3.91 3.91 0 001.82.39 3.79 3.79 0 001.07-.15 5.38 5.38 0 00.92-.38 3.41 3.41 0 00.73-.57v.82h3.75V5.53H39.8zM50 2.57l-3.89 1.07.09 1.89h-1.58v3h1.6v3.9a5.62 5.62 0 00.19 1.57 3.07 3.07 0 00.65 1.24 2.85 2.85 0 001.2.8 5.13 5.13 0 001.74.26 6.56 6.56 0 001.08-.09A7.19 7.19 0 0052 16l.2-.08v-3.05l-.41.18a1.54 1.54 0 01-.37.09 2.63 2.63 0 01-.47 0 .92.92 0 01-.73-.23 1.53 1.53 0 01-.2-.87V8.56h2.33v-3H50zm10.49 9.3a2.59 2.59 0 01-.39.82 1.94 1.94 0 01-.64.57 1.79 1.79 0 01-.88.22 1.74 1.74 0 01-.88-.22 1.85 1.85 0 01-.64-.57 2.61 2.61 0 01-.4-.82 3.35 3.35 0 01-.13-.95 3.45 3.45 0 01.13-.95 2.54 2.54 0 01.39-.79 1.77 1.77 0 01.63-.55 1.74 1.74 0 01.88-.21 1.9 1.9 0 01.88.2 2.17 2.17 0 01.64.56 2.41 2.41 0 01.4.8 3 3 0 01.15.94 3.36 3.36 0 01-.14.95m2.15-5.19a5.62 5.62 0 00-1.85-1.09 6.7 6.7 0 00-4.45 0 5.57 5.57 0 00-1.86 1.09 5.36 5.36 0 00-1.25 1.76 5.62 5.62 0 00-.47 2.32 5.66 5.66 0 00.47 2.32 5.55 5.55 0 001.25 1.78A5.69 5.69 0 0056.33 16a6.16 6.16 0 002.23.4 6.09 6.09 0 002.23-.4 5.69 5.69 0 001.85-1.12 5.45 5.45 0 001.27-1.78 5.79 5.79 0 00.46-2.32 5.79 5.79 0 00-.46-2.32 5.27 5.27 0 00-1.27-1.76"/>
    <g mask="url(#mask)">
        <path class="cls-2"
              d="M83.73 6.66a3.55 3.55 0 00-1.21-1 4 4 0 00-1.84-.39 3.57 3.57 0 00-1.94.51 4.94 4.94 0 00-.65.52V.38h-3.86v15.68h3.86V10.4a2.12 2.12 0 01.4-1.33 1.24 1.24 0 011.07-.49 1 1 0 01.56.13.91.91 0 01.35.35 1.61 1.61 0 01.19.56 4.59 4.59 0 01.06.76v5.68h3.88V9.62a6.4 6.4 0 00-.2-1.55 4 4 0 00-.67-1.41"/>
    </g>
    <path class="cls-2"
          d="M88.52 4.51a1.88 1.88 0 00.74-.15 1.68 1.68 0 00.61-.36 1.74 1.74 0 00.41-.58 1.81 1.81 0 00.16-.73 1.84 1.84 0 00-.57-1.32 1.77 1.77 0 00-.61-.37 1.87 1.87 0 00-.74-.14 1.94 1.94 0 00-.76.15 2.38 2.38 0 00-.6.39 1.7 1.7 0 00-.41.59 1.78 1.78 0 00-.14.72A1.75 1.75 0 0087.16 4a1.88 1.88 0 001.36.55"/>
    <g class="cls-4">
        <path class="cls-2" d="M86.51 16.06h3.86V5.53h-3.86v10.53z"/>
    </g>
    <g class="cls-4">
        <path class="cls-2"
              d="M100.09 11.61a2.22 2.22 0 01-.39.73 1.73 1.73 0 01-.63.5 1.87 1.87 0 01-.88.19 1.84 1.84 0 01-.86-.19 2.09 2.09 0 01-.66-.51 2.4 2.4 0 01-.42-2.39 2.26 2.26 0 01.43-.72 1.94 1.94 0 01.65-.51 1.84 1.84 0 01.86-.19 1.87 1.87 0 01.88.19 1.84 1.84 0 01.63.49 2.23 2.23 0 01.39.71 2.74 2.74 0 01.13.85 2.79 2.79 0 01-.13.85m3.55-2.94a5.53 5.53 0 00-1-1.76 4.6 4.6 0 00-1.58-1.21A4.73 4.73 0 0099 5.25a4.09 4.09 0 00-2 .49 5.26 5.26 0 00-.88.61v-.82h-3.7v15.32h3.86v-5.46a4.2 4.2 0 00.89.56 4.53 4.53 0 001.86.39 4.72 4.72 0 002.12-.47 4.81 4.81 0 001.58-1.24 5.32 5.32 0 001-1.78 6.72 6.72 0 00.33-2.09 6.36 6.36 0 00-.34-2.09m-35.03 7.85a6.23 6.23 0 01-2.22-.4A4.82 4.82 0 0164.66 15l-.22-.23 2.09-2.13.23.29a2.9 2.9 0 00.87.68 2.19 2.19 0 001.52.22 1.16 1.16 0 00.34-.14.7.7 0 00.2-.22.8.8 0 00.07-.36.56.56 0 00-.08-.3 1.24 1.24 0 00-.31-.28 3 3 0 00-.59-.26l-.89-.3a8.43 8.43 0 01-1-.38 3.59 3.59 0 01-.92-.61 3.22 3.22 0 01-.66-.92 3.13 3.13 0 01-.25-1.31 3.17 3.17 0 01.39-1.61 3.29 3.29 0 011-1.1 4.22 4.22 0 011.36-.62 6.29 6.29 0 011.5-.19 5.59 5.59 0 011.86.34 4.67 4.67 0 011.68 1l.25.23-2 2.17-.24-.3a2 2 0 00-.7-.55 2.14 2.14 0 00-.84-.2 2.18 2.18 0 00-.44 0 .92.92 0 00-.38.08.8.8 0 00-.23.22.51.51 0 00-.08.3.48.48 0 00.06.26.58.58 0 00.21.2 2.48 2.48 0 00.43.2l.63.22 1.09.38a4.67 4.67 0 011.1.6 3.21 3.21 0 01.84.95 2.79 2.79 0 01.35 1.44 3.63 3.63 0 01-.36 1.66 3.32 3.32 0 01-1 1.17 4.07 4.07 0 01-1.35.67 5.67 5.67 0 01-1.54.21M14.42 2.36l-1.61 2.08c-2.26-1.76-7-4.25-11.65.9A13.84 13.84 0 00.05 6.75v.06H0a9.55 9.55 0 015.42-1.23 6.41 6.41 0 014.86 2.13l-1.64 2.1A9.9 9.9 0 0016 9.6z"/>
    </g>
    <path d="M1.62 15.88l1.61-2.07c2.26 1.75 7 4.24 11.66-.91A12.82 12.82 0 0016 11.49l.05-.06a9.64 9.64 0 01-5.41 1.24 6.48 6.48 0 01-4.86-2.13L7.4 8.43a10 10 0 00-7.4.21z"
          fill="#f27123"/>
    <g class="cls-4">
        <path class="cls-2"
              d="M23.52 10.58l1.61-4.3 1.38 4.3zm-.25-8.3l-5.84 13.78h4.11l1-2.77h5.05l1.09 2.77h4.23L27.24 2.28z"/>
    </g>
</svg>