<svg width="25" height="24" viewBox="0 0 25 24" xmlns="http://www.w3.org/2000/svg">
<path d="M21.6977 5C20.5618 4.65 19.3135 4.5 18.1163 4.5C16.1209 4.5 13.9721 4.9 12.4884 6C11.0046 4.9 8.8558 4.5 6.86045 4.5C4.8651 4.5 2.71626 4.9 1.23254 6V20.65C1.23254 20.9 1.48836 21.15 1.74417 21.15C1.8465 21.15 1.89766 21.1 1.99999 21.1C3.38138 20.45 5.37673 20 6.86045 20C8.8558 20 11.0046 20.4 12.4884 21.5C13.8698 20.65 16.3767 20 18.1163 20C19.8046 20 21.5442 20.3 22.9767 21.05C23.0791 21.1 23.1302 21.1 23.2325 21.1C23.4884 21.1 23.7442 20.85 23.7442 20.6V6C23.1302 5.55 22.4651 5.25 21.6977 5ZM21.6977 18.5C20.5721 18.15 19.3442 18 18.1163 18C16.3767 18 13.8698 18.65 12.4884 19.5V8C13.8698 7.15 16.3767 6.5 18.1163 6.5C19.3442 6.5 20.5721 6.65 21.6977 7V18.5Z" />
<path d="M18.1162 10.5C19.0167 10.5 19.8865 10.59 20.6744 10.76V9.24C19.866 9.09 18.9962 9 18.1162 9C16.3767 9 14.8009 9.29 13.5116 9.83V11.49C14.6679 10.85 16.2744 10.5 18.1162 10.5Z" />
<path d="M13.5116 12.49V14.15C14.6679 13.51 16.2744 13.16 18.1162 13.16C19.0167 13.16 19.8865 13.25 20.6744 13.42V11.9C19.866 11.75 18.9962 11.66 18.1162 11.66C16.3767 11.66 14.8009 11.96 13.5116 12.49Z" />
<path d="M18.1162 14.33C16.3767 14.33 14.8009 14.62 13.5116 15.16V16.82C14.6679 16.18 16.2744 15.83 18.1162 15.83C19.0167 15.83 19.8865 15.92 20.6744 16.09V14.57C19.866 14.41 18.9962 14.33 18.1162 14.33Z" />
</svg>
