<svg width="24" height="24" viewBox="0 0 24 24" fill="none" xmlns="http://www.w3.org/2000/svg">
<path d="M8.68562 3.33249L9.17452 3.12112C10.0185 2.75615 10.8625 2.39117 11.7085 2.03181C11.7887 1.99768 11.9015 1.98689 11.9789 2.02006C14.3409 3.03254 16.7009 4.05054 19.0608 5.06853L19.7334 5.35863C19.7598 5.37001 19.7855 5.38325 19.8192 5.40055C19.8375 5.40995 19.8581 5.42055 19.8824 5.4327C19.8574 5.44606 19.8354 5.45829 19.8154 5.46945C19.7778 5.49047 19.7469 5.5077 19.7148 5.5215L19.3797 5.66562C18.4718 6.05612 17.5636 6.44676 16.6537 6.83171C16.5785 6.86354 16.473 6.87391 16.4006 6.84292C14.0312 5.82897 11.6636 4.80995 9.29602 3.79092L8.60794 3.49477C8.58939 3.48677 8.57135 3.47741 8.54357 3.46299C8.52676 3.45427 8.50638 3.44369 8.48017 3.43044C8.51257 3.41495 8.54048 3.40131 8.56556 3.38905C8.6118 3.36645 8.64839 3.34857 8.68562 3.33249Z" fill="#1C49C2"/>
<path d="M3.67404 6.4635L3.00451 6.17582L3.00457 8.31723C3.00475 11.6259 3.00493 14.8185 3 18.1814C2.99973 18.3601 3.05796 18.4306 3.20192 18.4922C5.2522 19.3705 7.30128 20.252 9.35038 21.1335L11.1736 21.9178C11.2162 21.9361 11.2597 21.952 11.3089 21.97C11.3342 21.9792 11.3612 21.989 11.3902 22L11.3901 19.9052C11.39 16.5874 11.3898 13.3878 11.3939 10.0165C11.3941 9.84435 11.3479 9.76568 11.1973 9.70126C9.60392 9.01958 8.01231 8.33301 6.42069 7.64644L5.00841 7.03737C4.56668 6.84695 4.12455 6.65702 3.67404 6.4635Z" fill="#1C49C2"/>
<path d="M12.3219 21.9351C12.3379 21.9291 12.3531 21.9234 12.3677 21.9181C12.3778 21.9144 12.3877 21.9107 12.3973 21.9072C12.4426 21.8907 12.4822 21.8763 12.5208 21.8597L14.233 21.1234C16.3313 20.2209 18.4295 19.3184 20.5295 18.4206C20.678 18.3571 20.711 18.2751 20.7108 18.1157C20.7073 14.7281 20.7074 11.5596 20.7075 8.23927L20.7076 6.19237C20.6914 6.19579 20.6786 6.19807 20.668 6.19995C20.65 6.20315 20.6383 6.20522 20.6276 6.20985C20.329 6.3386 20.0305 6.46757 19.732 6.59653C18.8558 6.97504 17.9791 7.35374 17.101 7.72689C16.9796 7.77848 16.9797 7.85773 16.9799 7.96065L16.9799 7.96839C16.981 9.10449 16.981 10.2406 16.9803 11.3767C16.98 11.7442 16.8034 11.9652 16.514 11.965C16.2241 11.9648 16.0493 11.7449 16.0491 11.3761C16.0487 10.6741 16.0487 9.97199 16.0488 9.26992L16.0489 8.1853L15.9647 8.22067C15.9196 8.23958 15.8818 8.25542 15.8441 8.27162C15.5731 8.38837 15.3021 8.50534 15.0312 8.62231C14.1932 8.98404 13.3549 9.34595 12.5145 9.70109C12.3632 9.76499 12.318 9.84484 12.3182 10.0167C12.3222 13.3837 12.3221 16.5335 12.322 19.8323L12.3219 21.9351Z" fill="#1C49C2"/>
<path d="M14.2744 7.8647C14.4654 7.78262 14.6565 7.70054 14.8475 7.61854C14.9254 7.58512 15.0033 7.5516 15.0923 7.51331C15.137 7.49405 15.1845 7.47359 15.2363 7.45132C15.2051 7.4355 15.1788 7.42178 15.1556 7.40969C15.1134 7.38764 15.0815 7.37098 15.0486 7.3568L14.5692 7.1499C12.157 6.10896 9.74481 5.06802 7.33063 4.03245C7.2521 3.99878 7.13932 4.00083 7.06012 4.03441C6.17826 4.40858 5.29875 4.78914 4.41921 5.16971C4.2799 5.22999 4.14058 5.29027 4.00125 5.35053C3.9684 5.36475 3.93669 5.38216 3.8977 5.40356C3.87708 5.41488 3.85443 5.42732 3.82849 5.44099C3.85246 5.45304 3.87273 5.46354 3.89069 5.47284C3.92355 5.48986 3.94866 5.50286 3.97446 5.51398C4.19873 5.61049 4.42299 5.707 4.64725 5.80351C7.00797 6.81943 9.36868 7.83536 11.7314 8.84578C11.809 8.87899 11.9217 8.86895 12.002 8.83503C12.7608 8.51516 13.5176 8.18992 14.2744 7.8647Z" fill="#1C49C2"/>
</svg>
