<svg width="24" height="24" viewBox="0 0 24 24" xmlns="http://www.w3.org/2000/svg">
<path fill-rule="evenodd" clip-rule="evenodd" d="M19.6191 12.8397C17.1231 13.435 16.4843 16.3882 13.8332 16.9317C10.8238 17.5486 8.92029 15.2103 8.33984 12.3974C7.86345 10.0881 8.27252 6.68494 11.6155 6.18418C14.5514 5.74468 15.2377 8.79371 18.5051 8.15061C20.4413 7.76957 21.3745 6.25281 20.9213 4.31434C20.2092 1.37638 15.5307 -0.781963 10.3954 0.270647C3.78881 1.62498 -0.678566 7.49581 0.775111 14.8598C2.2775 22.4715 9.49488 24.9375 15.204 23.6937C22.5502 22.0928 23.8345 16.906 23.4349 15.1968C23.0885 13.7169 21.5732 12.3524 19.6191 12.8397Z"/>
</svg>
