<svg width="49" height="15" viewBox="0 0 49 15" fill="none" xmlns="http://www.w3.org/2000/svg">
<path fill-rule="evenodd" clip-rule="evenodd" d="M47.4568 3.28016C48.3302 3.56696 48.7231 4.43494 48.436 5.23883C45.9362 11.9813 45.3031 13.7242 43.134 14.3621C40.9807 14.9953 39.1069 13.7316 38.8088 12.5426C38.5929 11.6815 39.1857 10.9839 39.8558 10.9429C40.8302 10.8831 41.1226 11.76 41.6284 11.51C42.1977 11.229 41.253 9.29871 40.3433 6.38856C40.1855 5.8838 40.0496 5.44678 39.9661 5.17848C39.7967 6.12592 39.5842 7.22995 39.3735 8.17031C38.8296 10.5994 38.5892 11.2226 36.8967 11.4532C35.1945 11.5978 34.8813 10.9615 33.5897 7.30779L33.5534 7.31183C33.1006 11.1583 32.9357 11.8476 31.2431 12.0781C29.541 12.2228 29.1687 11.6674 28.1013 9.41638C27.9392 9.07448 27.7714 8.70792 27.6044 8.33529C27.5298 8.58904 27.3999 8.86512 27.1989 9.16112C26.7497 9.82257 25.9918 10.5431 24.7046 11.1368C22.4903 12.1577 19.65 11.9685 18.2636 8.99674C18.1879 8.83449 18.1174 8.66132 18.0545 8.47955C17.9052 10.1501 17.7711 11.6507 17.7711 11.6507C17.6964 12.4866 16.9982 13.1344 16.0697 13.0524C15.1411 12.9704 14.5715 12.2217 14.6472 11.3747C14.6472 11.3747 14.797 9.69802 14.9678 7.78636C15.047 6.85611 14.4506 6.3005 13.8558 6.24794C13.2611 6.19547 12.5783 6.56385 12.491 7.5676C12.3202 9.47936 12.1704 11.156 12.1704 11.156C12.0957 11.9918 11.3974 12.6397 10.4689 12.5576C9.54032 12.4756 8.9707 11.7269 9.04645 10.8799C9.04645 10.8799 9.05753 10.7562 9.07695 10.5384C8.59244 11.1924 7.74359 11.8294 6.33377 12.1358C4.0575 12.6305 1.17999 11.6498 0.58088 8.6226C0.00129023 5.69395 1.78246 3.35912 4.41654 2.8205C6.46402 2.40177 8.32949 3.26025 8.61338 4.42868C8.79397 5.19961 8.42192 5.80283 7.65004 5.95436C6.34719 6.21013 6.07356 4.99752 4.90299 5.17231C3.57014 5.37136 3.40714 6.72489 3.59709 7.64332C3.82851 8.7619 4.58737 9.69196 5.78722 9.4466C6.84421 9.23047 7.09893 8.05598 8.09409 7.81922C8.58745 7.69639 9.01025 7.86946 9.28937 8.16202C9.509 5.70436 9.8048 2.39358 9.85106 1.8775C9.9257 1.04167 10.624 0.39377 11.5524 0.475756C12.4811 0.557843 13.0506 1.30643 12.9749 2.15339C12.9501 2.43058 12.8554 3.49074 12.7391 4.7915L12.7717 4.79433C12.7717 4.79433 13.6821 3.86428 15.3017 4.00732C16.5032 4.11347 17.4049 4.81394 17.8452 5.81192C18.0831 4.65118 18.8139 3.496 20.3846 2.65784C23.3994 1.04915 25.8542 2.60234 26.4881 4.21598C26.6571 3.92928 26.9306 3.69464 27.2956 3.56342C28.144 3.25843 28.9672 3.70667 29.2551 4.4867C29.2551 4.4867 30.1817 6.99764 30.8591 8.83227L30.8953 8.82832C30.8953 8.82832 31.1764 6.70973 31.3693 5.25703C31.5621 3.80433 31.8105 3.01833 33.076 2.87842C34.3414 2.73851 34.7575 3.45111 35.2666 4.82627C35.7757 6.20133 36.518 8.20671 36.518 8.20671L36.5542 8.20266C36.8097 6.26492 37.1589 3.61306 37.1589 3.61306C37.2675 2.78916 37.9714 2.17209 38.8664 2.2844C39.5923 2.37539 40.0835 2.89369 40.1741 3.53006C40.3771 3.29037 40.6614 3.1076 41.0145 3.02228C41.9084 2.80614 42.6872 3.34769 42.8856 4.16604C42.8856 4.16604 43.5244 6.80081 43.9914 8.72592L44.0284 8.72743C44.6495 6.8458 45.4993 4.27077 45.4993 4.27077C45.7633 3.47072 46.5834 2.99326 47.4568 3.28016ZM21.2846 4.40125C19.8249 5.06626 20.3525 6.5625 20.3525 6.5625L23.5577 5.10217C23.5577 5.10217 22.7443 3.73635 21.2846 4.40125ZM25.0413 7.51628C25.4192 6.72989 26.177 6.45896 26.8558 6.71728C26.6881 6.31423 26.536 5.94106 26.4098 5.625C26.2528 5.86446 26.0155 6.07647 25.7059 6.26094C24.6811 6.87208 21.202 8.45916 21.202 8.45916C21.5203 9.04085 22.4802 9.6575 23.5311 9.2357C24.6076 8.80341 24.7345 8.15465 25.0413 7.51628Z" fill="#128CED"/>
</svg>
