<svg width="21" height="21" viewBox="0 0 21 21" fill="none" xmlns="http://www.w3.org/2000/svg">
<circle cx="10.5" cy="10.5" r="8.5" fill="#031657" stroke="#031657" stroke-width="4"/>
<path fill-rule="evenodd" clip-rule="evenodd" d="M13.9922 10.8849C12.8482 11.1577 12.5554 12.5113 11.3403 12.7604C9.96101 13.0431 9.08855 11.9714 8.82251 10.6821C8.60416 9.62369 8.79165 8.06393 10.3238 7.83441C11.6695 7.63298 11.984 9.03045 13.4816 8.7357C14.369 8.56105 14.7967 7.86587 14.589 6.97741C14.2627 5.63084 12.1183 4.6416 9.76464 5.12405C6.73662 5.74478 4.68907 8.43558 5.35534 11.8107C6.04394 15.2995 9.3519 16.4297 11.9686 15.8596C15.3356 15.1259 15.9242 12.7486 15.7411 11.9652C15.5823 11.2869 14.8878 10.6615 13.9922 10.8849Z" fill="white"/>
</svg>
