<svg width="24" height="24" viewBox="0 0 24 24" fill="none" xmlns="http://www.w3.org/2000/svg">
<path fill-rule="evenodd" clip-rule="evenodd" d="M12 22C17.5228 22 22 17.5228 22 12C22 6.47715 17.5228 2 12 2C6.47715 2 2 6.47715 2 12C2 17.5228 6.47715 22 12 22ZM14.6891 7.83098C15.1036 7.41186 15.1036 6.73482 14.6891 6.3157C14.2745 5.89658 13.5942 5.89658 13.1902 6.30495L8.31093 11.2377C7.89636 11.6568 7.89636 12.3338 8.31093 12.7529L13.1902 17.6857C13.6048 18.1048 14.2745 18.1048 14.6891 17.6857C15.1036 17.2665 15.1036 16.5895 14.6891 16.1704L10.5645 12.0007L14.6891 7.83098Z" fill="#333333"/>
<mask id="mask0_6458_53329" style="mask-type:alpha" maskUnits="userSpaceOnUse" x="2" y="2" width="20" height="20">
<path fill-rule="evenodd" clip-rule="evenodd" d="M12 22C17.5228 22 22 17.5228 22 12C22 6.47715 17.5228 2 12 2C6.47715 2 2 6.47715 2 12C2 17.5228 6.47715 22 12 22ZM14.6891 7.83098C15.1036 7.41186 15.1036 6.73482 14.6891 6.3157C14.2745 5.89658 13.5942 5.89658 13.1902 6.30495L8.31093 11.2377C7.89636 11.6568 7.89636 12.3338 8.31093 12.7529L13.1902 17.6857C13.6048 18.1048 14.2745 18.1048 14.6891 17.6857C15.1036 17.2665 15.1036 16.5895 14.6891 16.1704L10.5645 12.0007L14.6891 7.83098Z" fill="white"/>
</mask>
<g mask="url(#mask0_6458_53329)">
<rect width="24" height="24" fill="#6B85AD"/>
</g>
</svg>
