<svg width="24" height="24" viewBox="0 0 24 24" fill="none" xmlns="http://www.w3.org/2000/svg">
<path fill-rule="evenodd" clip-rule="evenodd" d="M12 22C6.47715 22 2 17.5228 2 12C2 6.47715 6.47715 2 12 2C17.5228 2 22 6.47715 22 12C22 17.5228 17.5228 22 12 22ZM10.3109 6.3157C9.89636 6.73482 9.89636 7.41186 10.3109 7.83098L14.4355 12.0007L10.3109 16.1704C9.89636 16.5895 9.89636 17.2665 10.3109 17.6857C10.7255 18.1048 11.3952 18.1048 11.8098 17.6857L16.6891 12.7529C17.1036 12.3338 17.1036 11.6568 16.6891 11.2377L11.8098 6.30495C11.4058 5.89658 10.7255 5.89658 10.3109 6.3157Z" fill="#333333"/>
<mask id="mask0_6509_37118" style="mask-type:alpha" maskUnits="userSpaceOnUse" x="2" y="2" width="20" height="20">
<path fill-rule="evenodd" clip-rule="evenodd" d="M12 22C6.47715 22 2 17.5228 2 12C2 6.47715 6.47715 2 12 2C17.5228 2 22 6.47715 22 12C22 17.5228 17.5228 22 12 22ZM10.3109 6.3157C9.89636 6.73482 9.89636 7.41186 10.3109 7.83098L14.4355 12.0007L10.3109 16.1704C9.89636 16.5895 9.89636 17.2665 10.3109 17.6857C10.7255 18.1048 11.3952 18.1048 11.8098 17.6857L16.6891 12.7529C17.1036 12.3338 17.1036 11.6568 16.6891 11.2377L11.8098 6.30495C11.4058 5.89658 10.7255 5.89658 10.3109 6.3157Z" fill="white"/>
</mask>
<g mask="url(#mask0_6509_37118)">
<rect width="24" height="24" fill="#6B85AD"/>
</g>
</svg>
