<svg width="12" height="12" viewBox="0 0 12 12" fill="none" xmlns="http://www.w3.org/2000/svg">
<path d="M11.25 1.91667V5.76083L9.91417 4.41917C9.68667 4.19167 9.31333 4.19167 9.08583 4.41917L7.16667 6.34417L5.2475 4.425C5.02 4.1975 4.6525 4.1975 4.425 4.425L2.5 6.34417L0.75 4.58833V1.91667C0.75 1.275 1.275 0.75 1.91667 0.75H10.0833C10.725 0.75 11.25 1.275 11.25 1.91667ZM9.5 5.66167L11.25 7.4175V10.0833C11.25 10.725 10.725 11.25 10.0833 11.25H1.91667C1.275 11.25 0.75 10.725 0.75 10.0833V6.245L2.08583 7.58083C2.31333 7.80833 2.68083 7.80833 2.90833 7.58083L4.83333 5.65583L6.7525 7.575C6.98 7.8025 7.3475 7.8025 7.575 7.575L9.5 5.66167Z" fill="#163977"/>
</svg>
