<?xml version="1.0" encoding="UTF-8"?><svg viewBox="0 0 24 24" xmlns="http://www.w3.org/2000/svg"><path d="M11 9a1 1 0 1 1 2 0v5a1 1 0 1 1-2 0V9zm1 9a1 1 0 1 1 0-2 1 1 0 0 1 0 2zm9.51 1.49a3.54 3.54 0 0 1-3.09 1.8H5.56a3.52 3.52 0 0 1-3.07-1.77 3.54 3.54 0 0 1-.01-3.57L8.92 4.78A3.51 3.51 0 0 1 12 3c1.3 0 2.45.67 3.08 1.79l6.44 11.15a3.51 3.51 0 0 1 0 3.55zm-1.4-.8c.36-.62.36-1.34.02-1.94L13.69 5.59A1.92 1.92 0 0 0 12 4.61c-.7 0-1.33.36-1.68.98L3.88 16.74a1.95 1.95 0 0 0 1.68 2.93h12.86c.7 0 1.34-.37 1.7-.99z" /></svg>
