<svg width="24" height="24" viewBox="0 0 24 24" fill="none" xmlns="http://www.w3.org/2000/svg">
<path fill-rule="evenodd" clip-rule="evenodd" d="M17.9239 7.73109L21.8726 12.437C21.9151 12.479 21.9575 12.563 22 12.6471V17.1849C22 17.2689 21.9151 17.3529 21.8302 17.3529H20.9385C20.8536 17.3529 20.8111 17.3109 20.8111 17.2269C20.7687 16.1345 20.1318 15.084 19.0278 14.4958C17.8814 13.9076 16.4378 14.0756 15.4613 14.916C14.697 15.5462 14.3573 16.3866 14.3149 17.2269C14.3149 17.3109 14.2724 17.3529 14.1875 17.3529H10.1963C10.1114 17.3529 10.0689 17.3109 10.0689 17.2269C10.0265 16.0084 9.30467 14.874 8.03089 14.3697C6.84203 13.9076 5.14366 14.3277 4.33693 15.2941C3.86988 15.8824 3.65758 16.5546 3.61512 17.2269C3.61512 17.3109 3.57266 17.3529 3.48774 17.3529H2.17151C2.08659 17.3529 2.00167 17.2689 2.00167 17.1849V9.71798H9.26625L8.46122 10.5729C8.24383 10.7701 8.24383 11.132 8.46122 11.3617C8.5518 11.4603 8.70692 11.5275 8.83147 11.5275C8.95602 11.5275 9.11 11.4603 9.20398 11.3617L10.9057 9.55215C10.9238 9.55215 10.9308 9.54038 10.9408 9.52352C10.9471 9.51287 10.9546 9.50019 10.9669 9.48717C10.9975 9.48717 10.9975 9.45355 10.9975 9.45355C10.9975 9.43716 11.0052 9.42904 11.0129 9.42099C11.0205 9.41308 11.028 9.40524 11.028 9.38969C11.0597 9.35607 11.0597 9.35607 11.0597 9.32246V9.05916C11.028 9.02666 11.028 9.02666 11.028 8.99417C11.028 8.97707 11.0201 8.96867 11.0124 8.96042C11.0048 8.95244 10.9975 8.9446 10.9975 8.92918C10.9669 8.92918 10.9669 8.89557 10.9669 8.89557C10.9469 8.89557 10.9395 8.8822 10.9294 8.86389C10.9235 8.85317 10.9166 8.84076 10.9057 8.82834L9.29682 7.11966C9.11 6.88885 8.7692 6.88885 8.5518 7.11966C8.33668 7.31574 8.33668 7.67764 8.5518 7.90846L9.26625 8.66476H2.00167V5.21008C2.00167 5.08403 2.08659 5 2.21396 5H14.9518C15.0367 5 15.1216 5.04202 15.0791 5.16807V7.56303C15.0791 7.60504 15.1216 7.64706 15.1641 7.64706H17.7541C17.839 7.64706 17.8814 7.68908 17.9239 7.73109ZM2.00167 8.66476V9.71798H2V8.66476H2.00167ZM6.84203 15.4202C7.9205 15.4202 8.79516 16.2853 8.79516 17.3529C8.79516 18.4206 7.9205 19.2857 6.84203 19.2857C5.76314 19.2857 4.8889 18.4206 4.8889 17.3529C4.8889 16.2853 5.76314 15.4202 6.84203 15.4202ZM17.5418 15.4202C18.6202 15.4202 19.4949 16.2853 19.4949 17.3529C19.4949 18.4206 18.6202 19.2857 17.5418 19.2857C16.4633 19.2857 15.5886 18.4206 15.5886 17.3529C15.5886 16.2853 16.4633 15.4202 17.5418 15.4202ZM20.5564 12.8992H15.2914C15.249 12.8992 15.2065 12.8571 15.2065 12.8151V8.86555C15.2065 8.82353 15.249 8.78151 15.2914 8.78151H17.3295C17.3476 8.78151 17.3579 8.78151 17.3672 8.78476C17.3796 8.78914 17.39 8.79941 17.4144 8.82353L20.6413 12.7731C20.6413 12.8151 20.5988 12.8992 20.5564 12.8992Z" fill="#1C49C2"/>
</svg>
