<svg xmlns="http://www.w3.org/2000/svg" viewBox="0 0 24 24" data-testid="discover-icon">
  <title>Discover</title>
  <desc>Discover credit card</desc>
  <g fill="none" fill-rule="evenodd">
    <path d="M0 0h24v24H0z" />
    <path
      fill="#F5F5F5"
      d="M2 6.8c0-.44.36-.8.8-.8h18.4c.44 0 .8.36.8.8v10.4a.8.8 0 01-.8.8H2.8a.8.8 0 01-.8-.8V6.8z"
    />
    <path fill="#F76C02" d="M22 12.34v4.86a.8.8 0 01-.8.8h-9.28A19.17 19.17 0 0022 12.34z" />
    <g transform="translate(5.6 10.8)">
      <path
        fill="#414042"
        d="M1.86 1.25c0 .32-.09.56-.27.73-.18.17-.44.25-.78.25H.26V.3h.61c.31 0 .56.09.73.25.18.17.26.4.26.7zm-.42.01c0 .42-.2.63-.59.63H.67V.64H.9c.37 0 .55.2.55.62zm10.31.23v.74h-.4V.3h.56c.26 0 .45.05.58.15.12.1.19.24.19.43 0 .11-.03.22-.1.3a.62.62 0 01-.26.21l.57.84h-.46l-.46-.74h-.22zm0-.33h.14a.5.5 0 00.28-.06c.06-.05.1-.12.1-.2 0-.1-.04-.16-.1-.2a.57.57 0 00-.3-.06h-.12v.52zM2.21 2.23V.3h.4v1.93h-.4zm2.03-.53a.5.5 0 01-.18.4c-.13.1-.3.16-.53.16-.2 0-.39-.04-.54-.12v-.38l.33.13.24.03c.1 0 .16-.02.21-.05a.18.18 0 00.07-.15.17.17 0 00-.03-.1.33.33 0 00-.1-.09 2.43 2.43 0 00-.24-.13c-.12-.05-.2-.1-.27-.16a.58.58 0 01-.14-.18.51.51 0 01-.05-.23c0-.17.06-.3.17-.4.12-.1.28-.15.48-.15.1 0 .2 0 .29.03l.28.1-.13.32-.25-.09a.84.84 0 00-.2-.02c-.08 0-.14.01-.18.05a.18.18 0 00-.06.14c0 .04 0 .07.02.1l.08.07.26.14c.18.09.3.17.37.26.07.08.1.2.1.32zM5.41.62a.42.42 0 00-.36.17.8.8 0 00-.12.48c0 .43.16.65.48.65.14 0 .3-.03.5-.1v.34c-.16.07-.34.1-.54.1-.28 0-.5-.09-.64-.26-.15-.17-.22-.41-.22-.73 0-.2.03-.38.1-.53A.79.79 0 014.94.4c.14-.08.3-.12.48-.12.19 0 .38.04.57.13l-.13.33a2.24 2.24 0 00-.22-.09.65.65 0 00-.22-.03zM9.18.3h.41l-.66 1.93H8.5L7.83.3h.42l.36 1.15a4.4 4.4 0 01.1.43l.1-.43L9.18.3zm1.76 1.93h-1.1V.3h1.1v.34h-.7v.42h.65v.34h-.65v.5h.7v.33z"
      />
      <circle cx="6.91" cy="1.27" r="1" fill="#F76C02" />
    </g>
  </g>
</svg>
