<svg width="20" height="20" viewBox="0 0 20 20" fill="none" xmlns="http://www.w3.org/2000/svg">
<path d="M10 1.66675C5.41669 1.66675 1.66669 5.41675 1.66669 10.0001C1.66669 14.5834 5.41669 18.3334 10 18.3334C14.5834 18.3334 18.3334 14.5834 18.3334 10.0001C18.3334 5.41675 14.5834 1.66675 10 1.66675ZM3.33335 10.0001C3.33335 6.33342 6.33335 3.33341 10 3.33341C11.5 3.33341 12.9167 3.83341 14.0834 4.75008L4.75002 14.0834C3.83335 12.9167 3.33335 11.5001 3.33335 10.0001ZM10 16.6667C8.50002 16.6667 7.08335 16.1667 5.91669 15.2501L15.25 5.91675C16.1667 7.08342 16.6667 8.50008 16.6667 10.0001C16.6667 13.6667 13.6667 16.6667 10 16.6667Z" fill="#851940"/>
</svg>
