<svg width="230" height="71" viewBox="0 0 230 71" fill="none" xmlns="http://www.w3.org/2000/svg">
<g>
<path d="M171.037 67.905L190.218 46.353L171.037 24.798H191.275L200.775 35.268L209.923 24.798H229.455L210.365 46.264L229.717 67.905H209.396L199.983 57.349L190.657 67.905H171.037Z" fill="#FF6600"/>
<path d="M171.037 15.136H149.312V24.798H171.037V39.361H149.312V52.728H171.037V67.905H133.346V0H171.037V15.136Z" fill="#FF6600"/>
<path d="M117.446 0V27.79H117.271C113.751 23.744 109.353 22.338 104.25 22.338C93.797 22.338 85.923 29.444 83.159 38.839C80.007 28.487 71.878 22.143 59.824 22.143C50.035 22.143 42.305 26.537 38.271 33.697V24.798H18.037V15.136H40.118V0H0V67.906H18.037V39.361H36.015C35.479 41.458 35.193 43.703 35.193 46.072C35.193 60.237 46.014 70.176 59.824 70.176C71.437 70.176 79.09 64.723 83.138 54.784H67.681C65.59 57.77 64.004 58.657 59.824 58.657C54.977 58.657 50.798 54.428 50.798 49.415H82.272C83.637 60.666 92.401 70.369 104.428 70.369C109.616 70.369 114.366 67.817 117.271 63.508H117.446V67.904H133.346V0H117.446ZM51.3 39.564C52.303 35.251 55.648 32.432 59.824 32.432C64.421 32.432 67.596 35.165 68.431 39.564C68.783 39.564 51.3 39.564 51.3 39.564V39.564ZM107.797 57.566C101.936 57.566 98.294 52.105 98.294 46.403C98.294 40.308 101.462 34.447 107.797 34.447C114.366 34.447 116.983 40.308 116.983 46.403C116.982 52.183 114.209 57.566 107.797 57.566Z" fill="#4E148D"/>
</g>
</svg>
