<svg width="167" height="106" viewBox="0 0 167 106" fill="none" xmlns="http://www.w3.org/2000/svg">
<path d="M20.4927 26.1534L77.0915 16.7312V71.5498L23.3153 68.6698L20.4927 26.1534Z" fill="#A2A8C7"/>
<path opacity="0.05" d="M20.4926 26.1534L77.0914 16.7312V71.5498L23.3151 68.6698L20.4926 26.1534Z" fill="black"/>
<path d="M77.0922 16.7312L144.967 21.9273L141.211 69.6323L77.0922 71.5498V16.7312Z" fill="#A2A8C7"/>
<path opacity="0.1" d="M77.0922 16.7312L144.967 21.9273L141.211 69.6323L77.0922 71.5498V16.7312Z" fill="black"/>
<path d="M97.9602 0L77.0922 16.7313L144.967 21.9274L156.059 4.80509L97.9602 0Z" fill="#ABB1D1"/>
<path d="M0 7.88056L50.9536 1.53394L77.092 16.7312L20.4932 26.1534L0 7.88056Z" fill="#ABB1D1"/>
<path d="M89.4991 30.9662V105.915L62.9859 103.133L51.453 101.93L47.9394 101.554L36.4138 100.343L20.4927 98.6735V26.1536L77.0841 30.0939L89.4991 30.9662Z" fill="#ABB1D1"/>
<path d="M144.966 21.9275V95.019L123.715 99.1924L113.381 101.223L89.4988 105.915V30.9662L144.966 21.9275Z" fill="#ABB1D1"/>
<path opacity="0.05" d="M144.966 21.9275V95.019L123.715 99.1924L113.381 101.223L89.4988 105.915V30.9662L144.966 21.9275Z" fill="black"/>
<path d="M0 41.9299L20.4932 26.1536L89.4996 30.9662L79.3412 48.472L0 41.9299Z" fill="#A2A8C7"/>
<path opacity="0.1" d="M0 41.9299L20.4932 26.1536L89.4996 30.9662L79.3412 48.472L0 41.9299Z" fill="white"/>
<path d="M144.966 21.9275L89.4988 30.9662L107.552 47.5095L166.966 37.3128L144.966 21.9275Z" fill="#A2A8C7"/>
<path opacity="0.1" d="M144.966 22.9275L89.4988 31.9662L107.552 48.5095L166.966 38.3128L144.966 22.9275Z" fill="white"/>
</svg>
