<svg width="25" height="24" viewBox="0 0 25 24" fill="none" xmlns="http://www.w3.org/2000/svg" data-testid="gift-card-icon">
<g clip-path="url(#clip0_221_7538)">
<path fill-rule="evenodd" clip-rule="evenodd" d="M2.69922 4H22.6992C23.8038 4 24.6992 4.89543 24.6992 6V18C24.6992 19.1046 23.8038 20 22.6992 20H2.69922C1.59465 20 0.699219 19.1046 0.699219 18V6C0.699219 4.89543 1.59465 4 2.69922 4ZM11.6 7.10844C8.99568 7.65109 7.23462 10.0034 7.80767 12.9539C8.39991 16.0038 11.245 16.9918 13.4956 16.4934C16.3915 15.852 16.8978 13.7738 16.7402 13.089C16.6037 12.496 16.0063 11.9493 15.236 12.1445C14.2521 12.3831 14.0003 13.5663 12.9552 13.7841C11.7689 14.0313 11.0185 13.0944 10.7897 11.9673C10.6019 11.042 10.7632 9.67848 12.081 9.47783C13.2383 9.30174 13.5089 10.5234 14.7969 10.2657C15.5601 10.1131 15.928 9.50533 15.7494 8.72864C15.4687 7.55148 13.6244 6.68669 11.6 7.10844Z" fill="#128CED"/>
</g>
<defs>
<clipPath id="clip0_221_7538">
<rect width="24" height="24" fill="white" transform="translate(0.699219)"/>
</clipPath>
</defs>
</svg>
