<svg xmlns="http://www.w3.org/2000/svg" viewBox="0 0 24 24">
  <title>Gift Card</title>
  <desc>Gift card icon for when a gift card is in use</desc>
  <path
    fill="currentColor"
    d="M23 4.8a1 1 0 011 1v12.4a1 1 0 01-1 1H1a1 1 0 01-1-1V5.8a1 1 0 011-1h22zM11.6 7.1c-2.4.55-4.03 2.9-3.5 5.84a4.2 4.2 0 005.24 3.54c2.66-.64 3.13-2.72 2.98-3.4-.12-.6-.67-1.14-1.38-.94-.9.23-1.14 1.42-2.1 1.63-1.1.25-1.78-.69-2-1.81-.17-.92-.02-2.29 1.2-2.49 1.06-.17 1.3 1.05 2.5.79.7-.15 1.04-.76.87-1.53-.26-1.18-1.95-2.04-3.82-1.62z"
  />
</svg>
