<svg width="20" height="20" viewBox="0 0 20 20" fill="none" xmlns="http://www.w3.org/2000/svg">
<path d="M10 1.6665C5.40002 1.6665 1.66669 5.39984 1.66669 9.99984C1.66669 14.5998 5.40002 18.3332 10 18.3332C14.6 18.3332 18.3334 14.5998 18.3334 9.99984C18.3334 5.39984 14.6 1.6665 10 1.6665ZM10 14.1665C9.54169 14.1665 9.16669 13.7915 9.16669 13.3332V9.99984C9.16669 9.5415 9.54169 9.1665 10 9.1665C10.4584 9.1665 10.8334 9.5415 10.8334 9.99984V13.3332C10.8334 13.7915 10.4584 14.1665 10 14.1665ZM10.8334 7.49984H9.16669V5.83317H10.8334V7.49984Z"/>
</svg>
