<svg width="24" height="24" viewBox="0 0 24 24" fill="none" xmlns="http://www.w3.org/2000/svg">
<path d="M11 9.00293C11 8.44903 11.4439 8 12 8C12.5523 8 13 8.43788 13 9.00293V13.9971C13 14.551 12.5561 15 12 15C11.4477 15 11 14.5621 11 13.9971V9.00293Z" fill="black"/>
<path d="M12 18C12.5523 18 13 17.5523 13 17C13 16.4477 12.5523 16 12 16C11.4477 16 11 16.4477 11 17C11 17.5523 11.4477 18 12 18Z" fill="black"/>
<path fill-rule="evenodd" clip-rule="evenodd" d="M21.5215 15.9383C22.1629 17.0483 22.1588 18.3763 21.5133 19.4905C20.8637 20.6128 19.7084 21.283 18.4216 21.283H5.56144C4.27871 21.283 3.13166 20.6211 2.49029 19.5192C1.84071 18.4051 1.8366 17.0689 2.47796 15.9465L8.92449 4.78431C9.56174 3.67014 10.7129 3 12.0039 3C13.2948 3 14.446 3.66603 15.0832 4.78842L21.5215 15.9383ZM18.4175 19.6672C19.1246 19.6672 19.7578 19.3013 20.1155 18.6846C20.469 18.0721 20.4732 17.3485 20.1278 16.7482L13.6854 5.59012C13.3359 4.97754 12.7069 4.61163 12.0039 4.61163C11.2967 4.61163 10.6718 4.97343 10.3223 5.58601L3.8758 16.7441C3.52223 17.3608 3.52634 18.0926 3.87991 18.7052C4.22938 19.3096 4.85841 19.6672 5.55733 19.6672H18.4175Z" fill="black"/>
</svg>
