<svg width="25" height="24" viewBox="0 0 25 24" fill="none" xmlns="http://www.w3.org/2000/svg" data-testid="mastercard-blue-icon">
<g clip-path="url(#clip0)">
<path d="M0.5 6.27542C0.5 5.01874 1.51592 4 2.7795 4H22.2205C23.4794 4 24.5 5.02521 24.5 6.27542V17.7246C24.5 18.9813 23.4841 20 22.2205 20H2.7795C1.52057 20 0.5 18.9748 0.5 17.7246V6.27542Z" fill="#1C49C2"/>
<path d="M14.8223 8.06445H10.0959V15.784H14.8223V8.06445Z" fill="#FF5F00"/>
<path d="M10.5827 11.9251C10.5815 10.419 11.2729 8.99591 12.4577 8.066C10.445 6.48419 7.55456 6.71459 5.81782 8.59529C4.08107 10.476 4.08107 13.3756 5.81782 15.2563C7.55456 17.1369 10.445 17.3674 12.4577 15.7855C11.2726 14.8553 10.5811 13.4317 10.5827 11.9251Z" fill="#EB001B"/>
<path d="M20.4009 11.925C20.4009 13.8046 19.3277 15.5191 17.6371 16.3405C15.9465 17.1618 13.9353 16.9458 12.4578 15.7841C13.642 14.8534 14.3335 13.4306 14.3335 11.9243C14.3335 10.4181 13.642 8.99528 12.4578 8.06457C13.9353 6.90291 15.9465 6.68687 17.6371 7.50823C19.3277 8.32958 20.4009 10.0441 20.4009 11.9237V11.925Z" fill="#F79E1B"/>
</g>
<defs>
<clipPath id="clip0">
<rect width="24" height="24" fill="white" transform="translate(0.5)"/>
</clipPath>
</defs>
</svg>
