<svg xmlns="http://www.w3.org/2000/svg" viewBox="0 0 24 24" data-testid="mastercard-icon">
  <title>Mastercard</title>
  <desc>Mastercard credit card</desc>
  <g fill="none" fill-rule="evenodd">
    <path d="M0 0h24v24H0z" />
    <path
      fill="#F5F5F5"
      d="M2 6.8c0-.44.36-.8.8-.8h18.4c.44 0 .8.36.8.8v10.4a.8.8 0 01-.8.8H2.8a.8.8 0 01-.8-.8V6.8z"
    />
    <path fill="#FF5F00" d="M10.44 8.1h3.24v5.94h-3.24z" />
    <path
      fill="#EB001B"
      d="M10.64 11.07c0-1.2.56-2.28 1.4-2.97-.62-.5-1.4-.8-2.27-.8a3.74 3.74 0 00-3.7 3.77 3.74 3.74 0 003.7 3.78c.86 0 1.65-.3 2.28-.8a3.8 3.8 0 01-1.4-2.98z"
    />
    <path
      fill="#F79E1B"
      d="M18.04 11.07a3.74 3.74 0 01-3.7 3.78c-.86 0-1.65-.3-2.28-.8.86-.7 1.4-1.77 1.4-2.98 0-1.2-.55-2.28-1.4-2.97.63-.5 1.42-.8 2.28-.8 2.04 0 3.7 1.7 3.7 3.77z"
    />
    <path
      fill="#000"
      d="M8.25 16.76v-.63c0-.24-.14-.4-.4-.4a.4.4 0 00-.34.18.36.36 0 00-.33-.18c-.1 0-.2.03-.29.15v-.13h-.21v1h.21v-.55c0-.18.1-.26.24-.26.14 0 .22.1.22.26v.56h.21v-.56c0-.18.1-.26.24-.26.14 0 .21.1.21.26v.56h.24zm3.2-1h-.36v-.31h-.21v.3h-.2v.2h.2v.46c0 .23.1.37.34.37.09 0 .2-.03.26-.07l-.06-.2a.33.33 0 01-.18.06c-.1 0-.15-.06-.15-.17v-.45h.35v-.2zm1.82-.03c-.12 0-.2.06-.26.15v-.13h-.21v1H13v-.56c0-.17.08-.26.21-.26l.13.02.07-.21-.15-.01zm-2.76.1a.7.7 0 00-.4-.1c-.25 0-.41.13-.41.33 0 .16.12.26.34.29h.1c.11.03.17.06.17.11 0 .08-.08.13-.22.13a.56.56 0 01-.33-.1l-.1.16c.1.09.26.13.42.13.28 0 .45-.14.45-.33 0-.17-.13-.27-.34-.3l-.1-.01c-.1-.01-.17-.03-.17-.1s.08-.11.19-.11c.12 0 .24.05.3.08l.1-.18zm5.73-.1c-.12 0-.2.06-.26.15v-.13h-.21v1h.21v-.56c0-.17.07-.26.2-.26l.14.02.06-.21-.14-.01zm-2.75.52c0 .3.2.53.52.53a.5.5 0 00.35-.12l-.1-.17a.41.41 0 01-.26.09c-.17 0-.3-.13-.3-.33 0-.18.13-.31.3-.32.1 0 .18.03.26.1l.1-.18a.5.5 0 00-.35-.12c-.32 0-.52.22-.52.52zm1.99 0v-.5h-.22v.13a.37.37 0 00-.3-.15c-.28 0-.5.22-.5.52 0 .3.22.53.5.53.14 0 .24-.05.3-.15v.13h.22v-.5zm-.8 0c0-.17.12-.32.3-.32s.3.14.3.32-.12.33-.3.33c-.18-.01-.3-.15-.3-.33zm-2.57-.52c-.29 0-.5.21-.5.52 0 .32.21.53.51.53.14 0 .29-.04.4-.14l-.1-.15a.48.48 0 01-.29.1c-.13 0-.27-.06-.3-.24h.73v-.09c.01-.32-.17-.53-.45-.53zm0 .19c.13 0 .23.08.25.24h-.52c.02-.14.12-.24.27-.24zm5.35.33v-.9h-.21v.53a.37.37 0 00-.31-.15c-.28 0-.5.22-.5.52 0 .3.22.53.5.53.14 0 .24-.05.3-.15v.13h.22v-.5zm-.79 0c0-.17.11-.32.3-.32.17 0 .3.14.3.32s-.13.33-.3.33c-.19-.01-.3-.15-.3-.33zm-7.2 0v-.5h-.22v.13a.37.37 0 00-.31-.15c-.28 0-.5.22-.5.52 0 .3.22.53.5.53.14 0 .24-.05.3-.15v.13h.22v-.5zm-.81 0c0-.17.11-.32.3-.32.17 0 .3.14.3.32s-.13.33-.3.33c-.19-.01-.3-.15-.3-.33z"
    />
  </g>
</svg>
