<svg width="25" height="24" viewBox="0 0 25 24" fill="none" xmlns="http://www.w3.org/2000/svg" data-testid="paypal-icon">
<g clip-path="url(#clip0_221_7555)">
<path d="M2.69922 4H22.6992C23.8038 4 24.6992 4.89543 24.6992 6V18C24.6992 19.1046 23.8038 20 22.6992 20H2.69922C1.59465 20 0.699219 19.1046 0.699219 18V6C0.699219 4.89543 1.59465 4 2.69922 4Z" fill="#FFC43A"/>
<path d="M15.6844 7.76908C15.2359 7.23052 14.4254 7 13.3886 7H10.3804C10.1685 7 9.98815 7.16252 9.95523 7.38284L8.70243 15.7536C8.67775 15.9189 8.79843 16.0685 8.95752 16.0685H10.8151L10.6869 16.9246C10.6649 17.0688 10.7712 17.2 10.9097 17.2H12.4752C12.6611 17.2 12.8181 17.0586 12.8476 16.8648L12.8633 16.7811L13.1575 14.8105L13.1774 14.7017C13.2062 14.5092 13.3632 14.3671 13.5491 14.3671H13.7836C15.2997 14.3671 16.4873 13.7177 16.835 11.8396C16.9797 11.0555 16.9043 10.4 16.5216 9.93964C16.4051 9.80024 16.2611 9.68532 16.0924 9.59148C16.211 8.79792 16.0917 8.258 15.6844 7.76908Z" fill="#359CE1"/>
<path d="M16.0924 9.59172C16.211 8.79816 16.0917 8.25824 15.6844 7.76932C15.2359 7.23076 14.4254 7.00024 13.3893 7.00024H10.3804C10.1685 7.00024 9.98882 7.16276 9.95522 7.38308L8.70242 15.7539C8.67773 15.9191 8.7991 16.068 8.9575 16.068H10.8151L11.2814 12.9509L11.267 13.0488C11.3006 12.8285 11.4789 12.666 11.6914 12.666H12.574C14.3074 12.666 15.6652 11.9234 16.0622 9.77736C16.0738 9.71344 16.0834 9.65224 16.0924 9.59172Z" fill="#0A1F6B"/>
<path d="M11.7827 9.60192C11.8025 9.46932 11.8835 9.3612 11.9925 9.30544C12.0419 9.28096 12.0967 9.26668 12.1543 9.26668H14.5132C14.7929 9.26668 15.0528 9.2864 15.2915 9.32652C15.3593 9.33808 15.4259 9.35168 15.4903 9.36664C15.5541 9.3816 15.6165 9.3986 15.6768 9.41696C15.707 9.42648 15.7372 9.436 15.7667 9.4462C15.8832 9.487 15.9923 9.53528 16.0931 9.59104C16.211 8.79816 16.0917 8.25824 15.6844 7.76864C15.2359 7.23076 14.4254 7.00024 13.3886 7.00024H10.3804C10.1685 7.00024 9.98815 7.16276 9.95523 7.38308L8.70243 15.7532C8.67775 15.9191 8.79843 16.068 8.95752 16.068H10.8151L11.2814 12.9509L11.7827 9.60192Z" fill="#102E89"/>
</g>
<defs>
<clipPath id="clip0_221_7555">
<rect width="24" height="24" fill="white" transform="translate(0.699219)"/>
</clipPath>
</defs>
</svg>
