<svg width="14" height="14" fill="none" xmlns="http://www.w3.org/2000/svg"><path d="M7.00016.333374c-3.68 0-6.666664 2.986666-6.666664 6.666666 0 3.67996 2.986664 6.66666 6.666664 6.66666 3.68004 0 6.66664-2.9867 6.66664-6.66666 0-3.68-2.9866-6.666666-6.66664-6.666666Zm0 12.000026c-2.94 0-5.33333-2.39336-5.33333-5.33336s2.39333-5.33333 5.33333-5.33333 5.33334 2.39333 5.33334 5.33333-2.39334 5.33336-5.33334 5.33336ZM6.3335 9.66671h1.33333V11H6.3335V9.66671Zm1.07333-6.64c-1.37333-.2-2.58667.64666-2.95333 1.86-.12.38666.17333.78.58.78h.13333c.27333 0 .49333-.19334.58667-.44667.21333-.59333.84666-1 1.53333-.85333.63333.13333 1.1.75333 1.04667 1.4-.06667.89333-1.08 1.08666-1.63334 1.92 0 .00666-.00666.00666-.00666.01333-.00667.01333-.01334.02-.02.03333-.06.1-.12.21334-.16667.33334-.00667.02-.02.03333-.02667.05333-.00666.01333-.00666.02667-.01333.04667-.08.22666-.13333.5-.13333.83333h1.33333c0-.28.07333-.51333.18667-.71333.01333-.02.02-.04.03333-.06.05333-.09334.12-.18.18667-.26.00666-.00667.01333-.02.02-.02667.06666-.08.14-.15333.22-.22667.64-.60666 1.50666-1.1 1.32666-2.37333-.16-1.16-1.07333-2.14-2.23333-2.31333Z" fill="#000"/></svg>