<svg width="25" height="24" viewBox="0 0 25 24" xmlns="http://www.w3.org/2000/svg">
<path d="M20.1628 3.5L18.6279 2L17.093 3.5L15.5581 2L14.0232 3.5L12.4884 2L10.9535 3.5L9.41859 2L7.8837 3.5L6.34882 2V16H3.27905V19C3.27905 20.66 4.65022 22 6.34882 22H18.6279C20.3265 22 21.6977 20.66 21.6977 19V2L20.1628 3.5ZM19.6511 19C19.6511 19.55 19.1907 20 18.6279 20C18.0651 20 17.6046 19.55 17.6046 19V16H8.39533V5H19.6511V19Z" />
<path d="M15.5581 7H9.41858V9H15.5581V7Z" />
<path d="M18.6279 7H16.5814V9H18.6279V7Z" />
<path d="M15.5581 10H9.41858V12H15.5581V10Z" />
<path d="M18.6279 10H16.5814V12H18.6279V10Z" />
</svg>
