<svg width="18" height="15" viewBox="0 0 18 15" fill="none" xmlns="http://www.w3.org/2000/svg">
<path d="M13.9789 2.58001L15.6509 0.430756L17.3332 7.92841C13.2048 9.71081 9.64477 8.15121 9.64477 8.15121L11.3421 5.96911C9.81493 4.5033 8.7504 3.91523 6.29445 3.76129C4.21959 3.63109 2.27454 4.12141 0.67655 5.04031C0.674164 5.0418 0.671554 5.04307 0.669058 5.04428L0.666656 5.04546C0.674928 5.03346 0.683415 5.02244 0.691893 5.01143C0.69964 5.00138 0.707378 4.99133 0.714937 4.98056C1.09366 4.43523 1.47911 3.95085 1.8697 3.51791C6.6799 -1.81822 11.6286 0.765154 13.9789 2.58001Z"/>
<path d="M4.02114 12.2004L2.34914 14.3496L0.66686 6.85198C4.7952 5.06958 8.35526 6.62918 8.35526 6.62918L6.65794 8.81128C8.18509 10.2771 9.24963 10.8652 11.7056 11.0191C13.7804 11.1493 15.7255 10.659 17.3235 9.74008C17.3266 9.7381 17.3302 9.73652 17.3334 9.73494C17.3251 9.74693 17.3166 9.75795 17.3081 9.76896C17.3004 9.77902 17.2926 9.78907 17.2851 9.79984C16.9064 10.3452 16.5209 10.8295 16.1303 11.2625C11.3201 16.5986 6.37142 14.0152 4.02114 12.2004Z"/>
</svg>
