<svg width="18" height="18" viewBox="0 0 18 18" fill="none" xmlns="http://www.w3.org/2000/svg">
<path d="M17.0471 13.0303C16.2661 14.5899 15.0465 15.8927 13.5328 16.7752C11.861 17.7498 9.91962 18.1596 7.99653 17.9439C6.07345 17.7281 4.27112 16.8982 2.85687 15.5774C1.44263 14.2565 0.491787 12.515 0.14538 10.6111C-0.201027 8.70717 0.075452 6.74233 0.933809 5.00796C1.79217 3.27359 3.18668 1.86208 4.91052 0.982769C6.63436 0.103462 8.59571 -0.196803 10.5037 0.126511C12.1325 0.402525 13.6483 1.12046 14.8894 2.19452L15.2977 1.78628C15.8611 1.22284 16.8245 1.62189 16.8245 2.41871V4.06093C16.8245 4.55489 16.4241 4.95533 15.9301 4.95533H14.2824C13.4895 4.95533 13.0863 3.99778 13.6438 3.43403C13.7945 3.28169 13.9471 3.12811 14.1075 2.96792C13.031 2.05648 11.7258 1.4462 10.3252 1.208C8.64551 0.922341 6.91849 1.18709 5.40151 1.96278C3.88453 2.73847 2.6588 3.98358 1.90701 5.51254C1.15522 7.04151 0.917608 8.77247 1.22959 10.4475C1.54157 12.1225 2.38644 13.6518 3.63829 14.8076C4.89013 15.9633 6.48193 16.6837 8.17646 16.8612C9.87098 17.0387 11.5775 16.6639 13.0417 15.7927C14.3246 15.0293 15.3613 13.9207 16.0372 12.5991C16.1749 12.3297 16.4952 12.1993 16.7735 12.3181C17.0518 12.4369 17.1827 12.7597 17.0471 13.0303Z" fill="#1C49C2"/>
<path fill-rule="evenodd" clip-rule="evenodd" d="M11.9927 12.581C11.9927 12.8884 11.7411 13.14 11.4337 13.14H5.84371C5.53627 13.14 5.28472 12.8884 5.28472 12.581V8.10897C5.28472 7.80152 5.53627 7.54997 5.84371 7.54997H11.4337C11.7411 7.54997 11.9927 7.80152 11.9927 8.10897V12.581ZM7.52071 10.345C7.52071 9.73006 8.02381 9.22696 8.63871 9.22696C9.2536 9.22696 9.7567 9.73006 9.7567 10.345C9.7567 10.9599 9.2536 11.463 8.63871 11.463C8.02381 11.463 7.52071 10.9599 7.52071 10.345Z" fill="#1C49C2"/>
<path fill-rule="evenodd" clip-rule="evenodd" d="M11.4337 6.43197H11.9927C12.6076 6.43197 13.1107 6.93507 13.1107 7.54997V13.14C13.1107 13.7548 12.6076 14.2579 11.9927 14.2579H5.28472C4.66982 14.2579 4.16672 13.7548 4.16672 13.14V7.54997C4.16672 6.93507 4.66982 6.43197 5.28472 6.43197H10.3157V5.31398C10.3157 4.39163 9.56105 3.63698 8.63871 3.63698C7.87288 3.63698 7.20767 4.15685 7.01761 4.89473C6.93935 5.19659 6.6319 5.37547 6.33563 5.29721C6.03377 5.21895 5.85489 4.91709 5.93315 4.61523C6.25178 3.37984 7.36419 2.51899 8.63871 2.51899C10.1815 2.51899 11.4337 3.77114 11.4337 5.31398V6.43197ZM11.4337 13.14C11.7411 13.14 11.9927 12.8884 11.9927 12.581V8.10897C11.9927 7.80152 11.7411 7.54997 11.4337 7.54997H5.84371C5.53627 7.54997 5.28472 7.80152 5.28472 8.10897V12.581C5.28472 12.8884 5.53627 13.14 5.84371 13.14H11.4337Z" fill="#1C49C2"/>
<path d="M8.63871 9.22696C8.02381 9.22696 7.52071 9.73006 7.52071 10.345C7.52071 10.9599 8.02381 11.463 8.63871 11.463C9.2536 11.463 9.7567 10.9599 9.7567 10.345C9.7567 9.73006 9.2536 9.22696 8.63871 9.22696Z" fill="white"/>
</svg>
