<svg version="1.1" id="Layer_1" xmlns="http://www.w3.org/2000/svg" x="0" y="0" viewBox="0 0 1920 236.45"
     xml:space="preserve"><style>.st0{fill:#172c56}.st1{fill:#182c55}</style>
    <path class="st0"
          d="M1010.86 131.95c-8.98 7.42-20.9 11.23-35.75 11.23h-21.25v47.67h-27.98V55.6h50.26c14.17 0 25.74 3.8 34.72 11.4 9.15 7.42 13.65 18.13 13.65 31.95 0 14.34-4.49 25.4-13.65 33zm-37.13-49.92h-19.86v35.06h20.04c12.44 0 22.46-5.7 22.46-17.45-.02-12.26-9.69-17.61-22.64-17.61zM1093.07 190.85v-51.13c0-10.54-5.53-17.96-16.06-17.96-10.88 0-16.58 7.94-16.58 17.62v51.47h-26.95V50.25h26.95v59.24h.17c3.28-4.84 7.43-8.12 12.27-9.84 5.01-1.9 9.33-2.76 13.13-2.76 11.05 0 19.52 3.63 25.22 10.71 5.7 7.08 8.64 15.72 8.64 25.91v57.35h-26.79zM1135.54 185.15c-6.04-5.01-8.98-11.74-8.98-20.04v-.35c0-10.88 5.35-18.83 13.64-22.8 8.46-3.97 17.1-5.53 27.47-5.53h9.15c4.84 0 7.26-2.25 7.26-6.74 0-6.39-5.18-11.4-14.86-11.4-9.15 0-15.89 4.15-20.55 12.44l-20.56-12.26c7.95-14.68 22.11-21.94 42.32-21.94 24.35 0 40.07 12.95 40.07 37.14v57.17h-24.87v-11.4l-.34-.17c-6.22 8.81-15.37 13.3-27.64 13.3-8.63.01-16.06-2.41-22.11-7.42zm48.37-30.06v-2.07h-16.23c-7.77 0-13.99 3.63-13.99 10.54 0 6.22 4.84 9.33 11.75 9.33 11.56 0 18.47-7.61 18.47-17.8zM1277.34 124.87c-2.07-.34-4.15-.52-6.39-.52-17.44 0-25.04 10.88-25.04 27.46v39.04h-26.95V98.61h26.78v14.16h.17c3.97-8.46 13.82-15.2 26.08-15.2 2.25 0 3.97.17 5.36.69v26.61zM1372.33 139.37v51.47h-26.77v-51.13c0-11.92-5.01-17.96-15.03-17.96-10.88 0-16.41 7.08-16.41 17.96v51.13h-26.94V98.61h26.43v12.09h.34c5.01-8.98 15.89-14.17 26.95-14.17 12.78 0 21.76 4.84 26.95 14.68 8.98-10.19 17.62-14.68 30.57-14.68 21.59 0 32.47 14.51 32.47 36.79v57.52h-26.95v-51.47c0-11.74-5.01-17.62-15.03-17.62-10.53.01-16.58 6.74-16.58 17.62zM1446.59 185.15c-6.05-5.01-8.98-11.74-8.98-20.04v-.35c0-10.88 5.35-18.83 13.64-22.8 8.46-3.97 17.1-5.53 27.47-5.53h9.15c4.84 0 7.25-2.25 7.25-6.74 0-6.39-5.18-11.4-14.85-11.4-9.16 0-15.89 4.15-20.56 12.44l-20.56-12.26c7.95-14.68 22.11-21.94 42.32-21.94 24.35 0 40.07 12.95 40.07 37.14v57.17h-24.87v-11.4l-.34-.17c-6.22 8.81-15.37 13.3-27.64 13.3-8.63.01-16.06-2.41-22.1-7.42zm48.36-30.06v-2.07h-16.23c-7.77 0-13.99 3.63-13.99 10.54 0 6.22 4.84 9.33 11.75 9.33 11.56 0 18.47-7.61 18.47-17.8zM1541.92 179.28c-9.33-9.15-13.99-20.56-13.99-34.37 0-13.64 4.84-25.04 14.51-34.37s21.42-13.99 35.24-13.99c20.56 0 37.48 10.37 43.53 28.5l-23.66 9.84c-3.97-9.15-10.71-13.64-19.86-13.64-12.44 0-22.11 8.98-22.11 23.32 0 13.82 8.98 23.49 22.11 23.49 9.67 0 16.41-4.49 20.38-13.64l23.84 9.84c-7.08 18.83-23.84 28.67-44.39 28.67-14.35-.01-26.27-4.5-35.6-13.65zM1723.79 98.61l-41.97 104.84c-8.29 20.73-20.38 32.99-43.35 32.99-5.01 0-9.15-.69-12.78-1.9v-22.11c2.59.52 5.53.86 8.98.86 10.54 0 17.96-5.7 22.28-16.93l2.07-5.53-37.83-92.24h28.67l23.15 62.18 22.63-62.18h28.15z"/>
    <g><path class="st1" d="M112.33 114.82c-14.66 3.51-18.42 20.92-33.99 24.12-17.68 3.64-28.86-10.15-32.27-26.73-2.8-13.61-.4-33.67 19.24-36.62C82.55 73 86.59 90.98 105.78 87.18c11.37-2.25 16.86-11.19 14.2-22.61-4.18-17.32-31.67-30.04-61.84-23.84-38.81 7.98-65.06 42.59-56.52 86 8.83 44.87 51.23 59.4 84.77 52.07 43.16-9.44 50.71-40.01 48.36-50.08-2.04-8.73-10.94-16.77-22.42-13.9zM383.59 61.96c-9-24.11-45.4-47.65-90.16-23.63-46.27 24.83-43.08 68.45-31.26 93.95 20.43 44.05 62.28 46.85 94.91 31.72 18.97-8.8 30.14-19.48 36.76-29.28 12.72-18.84 6.29-32.29-2.3-37.14-10.35-5.84-22.96-2.43-28.92 9.89-4.37 9.03-6.18 18.2-21.51 24.31-14.97 5.97-28.64-2.76-33.17-10.98 0 0 49.55-22.44 64.14-31.09 11.3-6.68 15.95-15.87 11.51-27.75zm-87.45 33.16s-7.4-21.35 13.06-30.84 31.86 10 31.86 10l-44.92 20.84z"/>
        <path class="st1"
              d="M218.54 58.33c-23.87-2.12-37.28 11.66-37.28 11.66l-.48-.04c1.71-19.28 3.11-34.99 3.47-39.1 1.12-12.55-7.28-23.65-20.96-24.87-13.68-1.22-23.97 8.39-25.07 20.78-1.1 12.39-11.86 133.43-11.86 133.43-1.12 12.55 7.28 23.65 20.96 24.87 13.68 1.22 23.97-8.39 25.07-20.78l4.73-53.18c1.28-14.88 11.35-20.34 20.11-19.56 8.76.78 17.55 9.01 16.39 22.8l-4.73 53.18c-1.12 12.55 7.28 23.65 20.96 24.87 13.68 1.22 23.97-8.39 25.07-20.78 0 0 2.67-30.07 5.26-59.21 2.51-28.24-14.31-51.64-41.64-54.07zM565.77 32.79c-13.19-1.66-23.56 7.48-25.16 19.69 0 0-5.15 39.31-8.91 68.03l-.53.06s-10.94-29.72-18.44-50.1c-7.5-20.38-13.63-30.94-32.28-28.87-18.65 2.07-22.31 13.72-25.15 35.25l-6.98 52.93-.53.06-23.64-64.41c-4.24-11.56-16.37-18.2-28.87-13.68s-17.76 17.28-13.19 28.89c6.01 14.94 16.14 38.94 25.06 57.86 15.73 33.36 21.21 41.59 46.3 39.45 24.94-3.42 27.37-13.63 34.04-70.64l.27-.03.27-.03c19.03 54.15 23.65 63.58 48.73 61.44 24.94-3.42 28.48-12.65 36.5-48.66 4.54-20.42 9.16-46.05 11.74-61.95 1.9-12.33-6.04-23.63-19.23-25.29z"/>
        <path class="st1"
              d="M692.36 47.55c-12.87-4.25-24.96 2.83-28.85 14.68 0 0-12.52 38.17-21.67 66.05l-.54-.02C634.41 99.73 625 60.68 625 60.68c-2.93-12.13-14.4-20.16-27.57-16.95-13.17 3.2-19.99 15.58-16.73 27.79 0 0 2.98 9.69 6.84 22.1 13.41 43.13 27.33 71.74 18.94 75.91-7.46 3.7-11.76-9.29-26.12-8.41-9.87.61-18.61 10.95-15.43 23.71 4.39 17.62 32.01 36.35 63.73 26.97 31.96-9.45 41.29-35.29 78.13-135.22 4.23-11.92-1.56-24.78-14.43-29.03zM804.82 0h20.37v230.61h-20.37V0z"/></g>
    <g><path class="st1" d="M1919.97 146.16c0 42.24-34.25 76.49-76.49 76.49-42.24 0-76.49-34.25-76.49-76.49V64.69c-.34-6.99 2.79-11.9 8.54-14.51 7.49-3.4 15.22-6.72 23.18-8.5 33.76-7.52 67.43-7.06 100.74 3.06 2.12.64 4.17 1.56 6.24 2.37 9.73 3.85 14.75 10.15 14.28 21.78v77.27z"/>
        <path d="M1886.13 178.05c1.85 0 2.45-1.2 1.31-2.67l-19.74-25.71c-1.12-1.46-1.16-3.89-.06-5.39l18.24-24.94c1.09-1.5.47-2.71-1.38-2.71h-15.96c-1.85 0-4.27 1.21-5.38 2.71l-7.21 9.72c-1.11 1.49-2.94 1.5-4.07.03l-7.22-9.41c-1.13-1.47-.76-3.48.79-4.48 0 0 5.08-3.24 7.71-6.87 2.62-3.64 3.94-8.37 3.94-14.21 0-4.13-.8-7.53-2.4-10.21-1.6-2.68-3.78-4.9-6.5-6.63-2.66-1.68-5.56-2.77-8.71-3.31-3.14-.52-7.69-.68-7.69-.68-1.85-.06-4.88-.11-6.74-.11h-23.94c-1.84 0-3.36 1.52-3.36 3.37v69.51a3.38 3.38 0 003.36 3.36h12.31c1.86 0 3.38-1.52 3.38-3.36v-21.22c0-1.86 1.51-3.38 3.36-3.38h.12c1.86 0 4.29 1.21 5.4 2.7l15.01 20c1.12 1.48 1.12 3.9.02 5.4l-19.15 25.78c-1.09 1.48-.49 2.7 1.36 2.7h16.62c1.85 0 4.27-1.21 5.36-2.71l7.48-10.23c1.09-1.5 2.9-1.5 4.01-.02l7.71 10.28c1.11 1.49 3.54 2.69 5.39 2.69h16.63zm-49.58-76.3c-.6 1.34-1.51 2.49-2.74 3.44-1.3 1.06-2.88 1.75-4.74 2.07-1.86.32-3.41.37-3.41.37-1.85.06-4.6.12-6.12.12-1.51 0-2.73-1.53-2.73-3.38V90.6c0-1.86 1.43-3.38 3.19-3.38s4.71.02 6.57.06c0 0 .65.01 2.11.15 1.47.13 2.8.45 3.99.97 1.71.76 2.93 1.82 3.66 3.21.73 1.38 1.1 3.02 1.1 4.94.02 2.15-.28 3.88-.88 5.2z"
              fill="#fff"/></g></svg>