<svg width="120" height="36" viewBox="0 0 120 36" fill="none" xmlns="http://www.w3.org/2000/svg">
<path d="M0 18C0 8.05887 8.05888 0 18 0H102C111.941 0 120 8.05887 120 18V18C120 27.9411 111.941 36 102 36H18C8.05887 36 0 27.9411 0 18V18Z" fill="white"/>
<path fill-rule="evenodd" clip-rule="evenodd" d="M22.4127 26.3334C26.4669 25.6973 29.4949 23.1786 29.4999 20.1523L29.4974 11.3265C29.4974 10.8094 29.2233 10.3689 28.8497 10.2956C24.5822 9.45713 20.2485 9.45713 15.9834 10.2956C15.6103 10.3689 15.3333 10.8094 15.3333 11.3265V20.1226C15.3308 23.1485 18.3588 25.6874 22.4127 26.3334ZM20.7902 14.8104V16.2611H21.6064C21.8515 16.2611 22.0357 16.1977 22.1592 16.071C22.2836 15.9438 22.345 15.7668 22.345 15.5399C22.345 15.3122 22.2828 15.1336 22.1577 15.0041C22.0329 14.875 21.8488 14.8104 21.6064 14.8104H20.7902ZM25.9607 17.2321L24.5251 19.8443L25.9995 22.5001H24.5711L23.7069 20.7164L22.8428 22.5001H21.4179L22.8883 19.8443L21.4888 17.2381H20.7902V19.1014H19.4999V13.8334H21.6064C22.2408 13.8334 22.737 13.9724 23.0951 14.2488C23.4527 14.5261 23.6313 14.9177 23.6313 15.4239C23.6313 15.7902 23.5564 16.0935 23.4055 16.3343C23.2551 16.5755 23.019 16.7708 22.6982 16.9197L23.7069 18.983L24.5465 17.2321H25.9607Z" fill="#031657"/>
<path d="M41.5156 18.5391H38.4766V17.3125H41.5156C42.1042 17.3125 42.5807 17.2188 42.9453 17.0312C43.3099 16.8438 43.5755 16.5833 43.7422 16.25C43.9141 15.9167 44 15.5365 44 15.1094C44 14.7188 43.9141 14.3516 43.7422 14.0078C43.5755 13.6641 43.3099 13.388 42.9453 13.1797C42.5807 12.9661 42.1042 12.8594 41.5156 12.8594H38.8281V23H37.3203V11.625H41.5156C42.375 11.625 43.1016 11.7734 43.6953 12.0703C44.2891 12.3672 44.7396 12.7786 45.0469 13.3047C45.3542 13.8255 45.5078 14.4219 45.5078 15.0938C45.5078 15.8229 45.3542 16.4453 45.0469 16.9609C44.7396 17.4766 44.2891 17.8698 43.6953 18.1406C43.1016 18.4062 42.375 18.5391 41.5156 18.5391ZM48.6406 11V23H47.1953V11H48.6406ZM48.2969 18.4531L47.6953 18.4297C47.7005 17.8516 47.7865 17.3177 47.9531 16.8281C48.1198 16.3333 48.3542 15.9036 48.6562 15.5391C48.9583 15.1745 49.3177 14.8932 49.7344 14.6953C50.1562 14.4922 50.6224 14.3906 51.1328 14.3906C51.5495 14.3906 51.9245 14.4479 52.2578 14.5625C52.5911 14.6719 52.875 14.849 53.1094 15.0938C53.349 15.3385 53.5312 15.6562 53.6562 16.0469C53.7812 16.4323 53.8438 16.9036 53.8438 17.4609V23H52.3906V17.4453C52.3906 17.0026 52.3255 16.6484 52.1953 16.3828C52.0651 16.112 51.875 15.9167 51.625 15.7969C51.375 15.6719 51.0677 15.6094 50.7031 15.6094C50.3438 15.6094 50.0156 15.6849 49.7188 15.8359C49.4271 15.987 49.1745 16.1953 48.9609 16.4609C48.7526 16.7266 48.5885 17.0312 48.4688 17.375C48.3542 17.7135 48.2969 18.0729 48.2969 18.4531ZM60.9922 21.5547V17.2031C60.9922 16.8698 60.9245 16.5807 60.7891 16.3359C60.6589 16.0859 60.4609 15.8932 60.1953 15.7578C59.9297 15.6224 59.6016 15.5547 59.2109 15.5547C58.8464 15.5547 58.526 15.6172 58.25 15.7422C57.9792 15.8672 57.7656 16.0312 57.6094 16.2344C57.4583 16.4375 57.3828 16.6562 57.3828 16.8906H55.9375C55.9375 16.5885 56.0156 16.2891 56.1719 15.9922C56.3281 15.6953 56.5521 15.4271 56.8438 15.1875C57.1406 14.9427 57.4948 14.75 57.9062 14.6094C58.3229 14.4635 58.7865 14.3906 59.2969 14.3906C59.9115 14.3906 60.4531 14.4948 60.9219 14.7031C61.3958 14.9115 61.7656 15.2266 62.0312 15.6484C62.3021 16.0651 62.4375 16.5885 62.4375 17.2188V21.1562C62.4375 21.4375 62.4609 21.737 62.5078 22.0547C62.5599 22.3724 62.6354 22.6458 62.7344 22.875V23H61.2266C61.1536 22.8333 61.0964 22.612 61.0547 22.3359C61.013 22.0547 60.9922 21.7943 60.9922 21.5547ZM61.2422 17.875L61.2578 18.8906H59.7969C59.3854 18.8906 59.0182 18.9245 58.6953 18.9922C58.3724 19.0547 58.1016 19.151 57.8828 19.2812C57.6641 19.4115 57.4974 19.5755 57.3828 19.7734C57.2682 19.9661 57.2109 20.1927 57.2109 20.4531C57.2109 20.7188 57.2708 20.9609 57.3906 21.1797C57.5104 21.3984 57.6901 21.5729 57.9297 21.7031C58.1745 21.8281 58.474 21.8906 58.8281 21.8906C59.2708 21.8906 59.6615 21.7969 60 21.6094C60.3385 21.4219 60.6068 21.1927 60.8047 20.9219C61.0078 20.651 61.1172 20.388 61.1328 20.1328L61.75 20.8281C61.7135 21.0469 61.6146 21.2891 61.4531 21.5547C61.2917 21.8203 61.0755 22.0755 60.8047 22.3203C60.5391 22.5599 60.2214 22.7604 59.8516 22.9219C59.487 23.0781 59.0755 23.1562 58.6172 23.1562C58.0443 23.1562 57.5417 23.0443 57.1094 22.8203C56.6823 22.5964 56.349 22.2969 56.1094 21.9219C55.875 21.5417 55.7578 21.1172 55.7578 20.6484C55.7578 20.1953 55.8464 19.7969 56.0234 19.4531C56.2005 19.1042 56.4557 18.8151 56.7891 18.5859C57.1224 18.3516 57.5234 18.1745 57.9922 18.0547C58.4609 17.9349 58.9844 17.875 59.5625 17.875H61.2422ZM66.1562 15.875V23H64.7109V14.5469H66.1172L66.1562 15.875ZM68.7969 14.5L68.7891 15.8438C68.6693 15.8177 68.5547 15.8021 68.4453 15.7969C68.3411 15.7865 68.2214 15.7812 68.0859 15.7812C67.7526 15.7812 67.4583 15.8333 67.2031 15.9375C66.9479 16.0417 66.7318 16.1875 66.5547 16.375C66.3776 16.5625 66.237 16.7865 66.1328 17.0469C66.0339 17.3021 65.9688 17.5833 65.9375 17.8906L65.5312 18.125C65.5312 17.6146 65.5807 17.1354 65.6797 16.6875C65.7839 16.2396 65.9427 15.8438 66.1562 15.5C66.3698 15.151 66.6406 14.8802 66.9688 14.6875C67.3021 14.4896 67.6979 14.3906 68.1562 14.3906C68.2604 14.3906 68.3802 14.4036 68.5156 14.4297C68.651 14.4505 68.7448 14.474 68.7969 14.5ZM71.5703 16.2266V23H70.1172V14.5469H71.4922L71.5703 16.2266ZM71.2734 18.4531L70.6016 18.4297C70.6068 17.8516 70.6823 17.3177 70.8281 16.8281C70.974 16.3333 71.1901 15.9036 71.4766 15.5391C71.763 15.1745 72.1198 14.8932 72.5469 14.6953C72.974 14.4922 73.4688 14.3906 74.0312 14.3906C74.4271 14.3906 74.7917 14.4479 75.125 14.5625C75.4583 14.6719 75.7474 14.8464 75.9922 15.0859C76.237 15.3255 76.4271 15.6328 76.5625 16.0078C76.6979 16.3828 76.7656 16.8359 76.7656 17.3672V23H75.3203V17.4375C75.3203 16.9948 75.2448 16.6406 75.0938 16.375C74.9479 16.1094 74.7396 15.9167 74.4688 15.7969C74.1979 15.6719 73.8802 15.6094 73.5156 15.6094C73.0885 15.6094 72.7318 15.6849 72.4453 15.8359C72.1589 15.987 71.9297 16.1953 71.7578 16.4609C71.5859 16.7266 71.4609 17.0312 71.3828 17.375C71.3099 17.7135 71.2734 18.0729 71.2734 18.4531ZM76.75 17.6562L75.7812 17.9531C75.7865 17.4896 75.862 17.0443 76.0078 16.6172C76.1589 16.1901 76.375 15.8099 76.6562 15.4766C76.9427 15.1432 77.2943 14.8802 77.7109 14.6875C78.1276 14.4896 78.6042 14.3906 79.1406 14.3906C79.5938 14.3906 79.9948 14.4505 80.3438 14.5703C80.6979 14.6901 80.9948 14.875 81.2344 15.125C81.4792 15.3698 81.6641 15.6849 81.7891 16.0703C81.9141 16.4557 81.9766 16.9141 81.9766 17.4453V23H80.5234V17.4297C80.5234 16.9557 80.4479 16.5885 80.2969 16.3281C80.151 16.0625 79.9427 15.8776 79.6719 15.7734C79.4062 15.6641 79.0885 15.6094 78.7188 15.6094C78.401 15.6094 78.1198 15.6641 77.875 15.7734C77.6302 15.8828 77.4245 16.0339 77.2578 16.2266C77.0911 16.4141 76.9635 16.6302 76.875 16.875C76.7917 17.1198 76.75 17.3802 76.75 17.6562ZM89.1484 21.5547V17.2031C89.1484 16.8698 89.0807 16.5807 88.9453 16.3359C88.8151 16.0859 88.6172 15.8932 88.3516 15.7578C88.0859 15.6224 87.7578 15.5547 87.3672 15.5547C87.0026 15.5547 86.6823 15.6172 86.4062 15.7422C86.1354 15.8672 85.9219 16.0312 85.7656 16.2344C85.6146 16.4375 85.5391 16.6562 85.5391 16.8906H84.0938C84.0938 16.5885 84.1719 16.2891 84.3281 15.9922C84.4844 15.6953 84.7083 15.4271 85 15.1875C85.2969 14.9427 85.651 14.75 86.0625 14.6094C86.4792 14.4635 86.9427 14.3906 87.4531 14.3906C88.0677 14.3906 88.6094 14.4948 89.0781 14.7031C89.5521 14.9115 89.9219 15.2266 90.1875 15.6484C90.4583 16.0651 90.5938 16.5885 90.5938 17.2188V21.1562C90.5938 21.4375 90.6172 21.737 90.6641 22.0547C90.7161 22.3724 90.7917 22.6458 90.8906 22.875V23H89.3828C89.3099 22.8333 89.2526 22.612 89.2109 22.3359C89.1693 22.0547 89.1484 21.7943 89.1484 21.5547ZM89.3984 17.875L89.4141 18.8906H87.9531C87.5417 18.8906 87.1745 18.9245 86.8516 18.9922C86.5286 19.0547 86.2578 19.151 86.0391 19.2812C85.8203 19.4115 85.6536 19.5755 85.5391 19.7734C85.4245 19.9661 85.3672 20.1927 85.3672 20.4531C85.3672 20.7188 85.4271 20.9609 85.5469 21.1797C85.6667 21.3984 85.8464 21.5729 86.0859 21.7031C86.3307 21.8281 86.6302 21.8906 86.9844 21.8906C87.4271 21.8906 87.8177 21.7969 88.1562 21.6094C88.4948 21.4219 88.763 21.1927 88.9609 20.9219C89.1641 20.651 89.2734 20.388 89.2891 20.1328L89.9062 20.8281C89.8698 21.0469 89.7708 21.2891 89.6094 21.5547C89.4479 21.8203 89.2318 22.0755 88.9609 22.3203C88.6953 22.5599 88.3776 22.7604 88.0078 22.9219C87.6432 23.0781 87.2318 23.1562 86.7734 23.1562C86.2005 23.1562 85.6979 23.0443 85.2656 22.8203C84.8385 22.5964 84.5052 22.2969 84.2656 21.9219C84.0312 21.5417 83.9141 21.1172 83.9141 20.6484C83.9141 20.1953 84.0026 19.7969 84.1797 19.4531C84.3568 19.1042 84.612 18.8151 84.9453 18.5859C85.2786 18.3516 85.6797 18.1745 86.1484 18.0547C86.6172 17.9349 87.1406 17.875 87.7188 17.875H89.3984ZM96.25 21.9688C96.5938 21.9688 96.9115 21.8984 97.2031 21.7578C97.4948 21.6172 97.7344 21.4245 97.9219 21.1797C98.1094 20.9297 98.2161 20.6458 98.2422 20.3281H99.6172C99.5911 20.8281 99.4219 21.2943 99.1094 21.7266C98.8021 22.1536 98.3984 22.5 97.8984 22.7656C97.3984 23.026 96.849 23.1562 96.25 23.1562C95.6146 23.1562 95.0599 23.0443 94.5859 22.8203C94.1172 22.5964 93.7266 22.2891 93.4141 21.8984C93.1068 21.5078 92.875 21.0599 92.7188 20.5547C92.5677 20.0443 92.4922 19.5052 92.4922 18.9375V18.6094C92.4922 18.0417 92.5677 17.5052 92.7188 17C92.875 16.4896 93.1068 16.0391 93.4141 15.6484C93.7266 15.2578 94.1172 14.9505 94.5859 14.7266C95.0599 14.5026 95.6146 14.3906 96.25 14.3906C96.9115 14.3906 97.4896 14.526 97.9844 14.7969C98.4792 15.0625 98.8672 15.4271 99.1484 15.8906C99.4349 16.349 99.5911 16.8698 99.6172 17.4531H98.2422C98.2161 17.1042 98.1172 16.7891 97.9453 16.5078C97.7786 16.2266 97.5495 16.0026 97.2578 15.8359C96.9714 15.6641 96.6354 15.5781 96.25 15.5781C95.8073 15.5781 95.4349 15.6667 95.1328 15.8438C94.8359 16.0156 94.599 16.25 94.4219 16.5469C94.25 16.8385 94.125 17.1641 94.0469 17.5234C93.974 17.8776 93.9375 18.2396 93.9375 18.6094V18.9375C93.9375 19.3073 93.974 19.6719 94.0469 20.0312C94.1198 20.3906 94.2422 20.7161 94.4141 21.0078C94.5911 21.2995 94.8281 21.5339 95.125 21.7109C95.4271 21.8828 95.8021 21.9688 96.25 21.9688ZM103.617 22.125L105.969 14.5469H107.516L104.125 24.3047C104.047 24.513 103.943 24.737 103.812 24.9766C103.688 25.2214 103.526 25.4531 103.328 25.6719C103.13 25.8906 102.891 26.0677 102.609 26.2031C102.333 26.3438 102.003 26.4141 101.617 26.4141C101.503 26.4141 101.357 26.3984 101.18 26.3672C101.003 26.3359 100.878 26.3099 100.805 26.2891L100.797 25.1172C100.839 25.1224 100.904 25.1276 100.992 25.1328C101.086 25.1432 101.151 25.1484 101.188 25.1484C101.516 25.1484 101.794 25.1042 102.023 25.0156C102.253 24.9323 102.445 24.7891 102.602 24.5859C102.763 24.388 102.901 24.1146 103.016 23.7656L103.617 22.125ZM101.891 14.5469L104.086 21.1094L104.461 22.6328L103.422 23.1641L100.312 14.5469H101.891Z" fill="#031657"/>
<path d="M18 1H102V-1H18V1ZM102 35H18V37H102V35ZM18 35C8.61116 35 1 27.3888 1 18H-1C-1 28.4934 7.50659 37 18 37V35ZM119 18C119 27.3888 111.389 35 102 35V37C112.493 37 121 28.4934 121 18H119ZM102 1C111.389 1 119 8.61116 119 18H121C121 7.50659 112.493 -1 102 -1V1ZM18 -1C7.50659 -1 -1 7.50659 -1 18H1C1 8.61116 8.61116 1 18 1V-1Z" fill="#CCCCCC"/>
</svg>
