<?xml version="1.0" encoding="UTF-8"?>
<svg viewBox="0 0 24 24" version="1.1" xmlns="http://www.w3.org/2000/svg" xmlns:xlink="http://www.w3.org/1999/xlink">
  <g stroke="none" stroke-width="1" fill-rule="evenodd">
    <path d="M21,14.8409443 C20.9936859,18.8356293 17.1462777,22.1602732 11.9950023,23 C6.84425304,22.1472204 2.99684488,18.7959272 3.00000194,14.8017861 L3.00000194,3.19082229 C3.00000194,2.5082723 3.35201453,1.92688112 3.82610025,1.83007324 C9.2451999,0.723308921 14.751645,0.723308921 20.1739017,1.83007324 C20.6485136,1.92688112 20.9968429,2.5082723 20.9968429,3.19082229 C20.9968429,3.19082229 21,14.6049071 21,14.8409443"></path>
    <path d="M9.58810626,8.08124657 L9.58810626,6.24003838 L10.592737,6.24003838 C10.8910553,6.24003838 11.1177187,6.32197039 11.2712649,6.4858344 C11.4252986,6.65020106 11.5018279,6.87689636 11.5018279,7.16592031 C11.5018279,7.45393895 11.4262735,7.67862365 11.2732147,7.83997441 C11.1211309,8.00082252 10.8944675,8.08124657 10.592737,8.08124657 L9.58810626,8.08124657 Z M14.1852303,12.6292268 L15.9522301,9.3137452 L14.2115525,9.3137452 L13.1781623,11.5359623 L11.9366317,8.91715409 C12.3314648,8.72815756 12.6219839,8.48035094 12.8072142,8.17423689 C12.992932,7.86862548 13.0850597,7.48359532 13.0850597,7.01864376 C13.0850597,6.37625663 12.8652206,5.87913544 12.4250548,5.5272802 C11.9844017,5.17643027 11.3736291,5 10.592737,5 L8,5 L8,11.6862548 L9.58810626,11.6862548 L9.58810626,9.32128496 L10.4479649,9.32128496 L12.1706069,12.6292268 L10.3607117,16 L12.1145503,16 L13.1781623,13.7360629 L14.2417743,16 L16,16 L14.1852303,12.6292268 Z" fill="#FFFFFF"></path>
  </g>
</svg>
