<svg width="25" height="24" viewBox="0 0 25 24" xmlns="http://www.w3.org/2000/svg">
<path d="M19.7944 12.94C19.8354 12.64 19.8558 12.33 19.8558 12C19.8558 11.68 19.8354 11.36 19.7842 11.06L21.8614 9.47999C22.0456 9.33999 22.0968 9.06999 21.9842 8.86999L20.0196 5.54999C19.8968 5.32999 19.641 5.25999 19.4158 5.32999L16.9703 6.28999C16.4586 5.90999 15.9163 5.58999 15.3126 5.34999L14.9442 2.80999C14.9033 2.56999 14.6986 2.39999 14.453 2.39999H10.5237C10.2782 2.39999 10.0837 2.56999 10.0428 2.80999L9.67444 5.34999C9.07072 5.58999 8.51816 5.91999 8.01676 6.28999L5.57118 5.32999C5.34606 5.24999 5.09025 5.32999 4.96746 5.54999L3.01304 8.86999C2.89025 9.07999 2.93118 9.33999 3.13583 9.47999L5.21304 11.06C5.16188 11.36 5.12095 11.69 5.12095 12C5.12095 12.31 5.14141 12.64 5.19258 12.94L3.11537 14.52C2.93118 14.66 2.88002 14.93 2.99258 15.13L4.95723 18.45C5.08002 18.67 5.33583 18.74 5.56095 18.67L8.00653 17.71C8.51816 18.09 9.06048 18.41 9.6642 18.65L10.0326 21.19C10.0837 21.43 10.2782 21.6 10.5237 21.6H14.453C14.6986 21.6 14.9033 21.43 14.934 21.19L15.3023 18.65C15.9061 18.41 16.4586 18.09 16.96 17.71L19.4056 18.67C19.6307 18.75 19.8865 18.67 20.0093 18.45L21.974 15.13C22.0968 14.91 22.0456 14.66 21.8512 14.52L19.7944 12.94ZM12.4884 15.6C10.4623 15.6 8.80467 13.98 8.80467 12C8.80467 10.02 10.4623 8.39999 12.4884 8.39999C14.5144 8.39999 16.1721 10.02 16.1721 12C16.1721 13.98 14.5144 15.6 12.4884 15.6Z" />
</svg>
