<svg width="25" height="24" viewBox="0 0 25 24" xmlns="http://www.w3.org/2000/svg">
<mask id="mask0" mask-type="alpha" maskUnits="userSpaceOnUse" x="3" y="3" width="19" height="18">
<path fill-rule="evenodd" clip-rule="evenodd" d="M19.694 20.325V10.05L20.4646 10.5L21.6206 8.475L12.5269 3L3.51025 8.475L4.58916 10.5L5.35982 10.05V20.475H3.27905V21H21.6977V20.475H19.694V20.325ZM5.97634 20.325V9.675L12.5269 5.85L19.0774 9.675V20.325H5.97634ZM8.05425 10.3333V19H16.9225V10.3333H8.05425ZM14.8002 16.4074C14.3454 16.4074 13.8906 16.037 13.8148 15.5926H11.2377C11.1619 16.1111 10.7071 16.4074 10.2523 16.4074C9.64597 16.4074 9.19119 15.8889 9.19119 15.2963C9.19119 15.1154 9.2916 14.9346 9.36985 14.7937L9.36986 14.7936C9.38775 14.7614 9.40448 14.7313 9.41858 14.7037C9.26699 14.5556 9.1154 14.3333 9.19119 14.1111C9.19119 13.5185 9.64597 13 10.2523 13C10.7071 13 11.1619 13.2963 11.2377 13.8148H13.8148C13.8906 13.2963 14.3454 13 14.8002 13C15.0275 13 15.3307 13.0741 15.4823 13.2222C15.9371 13.5926 16.0129 14.2593 15.6339 14.7037C15.7855 14.8519 15.9371 15.0741 15.8613 15.2963C15.8613 15.8889 15.4065 16.4074 14.8002 16.4074Z" />
</mask>
<g mask="url(#mask0)">
<rect x="3.27905" y="3" width="18.4186" height="18" />
</g>
</svg>
