<svg width="25" height="24" viewBox="0 0 25 24" xmlns="http://www.w3.org/2000/svg">
<path d="M23.1507 11.34L21.2474 9.22001L21.5135 6.41001C21.5646 5.91001 21.2167 5.45001 20.7255 5.34001L17.9014 4.71001L16.4279 2.28001C16.1618 1.85001 15.6195 1.67001 15.1488 1.87001L12.4883 3.00001L9.8381 1.89001C9.36741 1.69001 8.81485 1.87001 8.55903 2.30001L7.07531 4.72001L4.26136 5.34001C3.75996 5.45001 3.41206 5.90001 3.46322 6.41001L3.72927 9.21001L1.82601 11.34C1.48834 11.72 1.48834 12.28 1.82601 12.66L3.72927 14.78L3.46322 17.6C3.41206 18.1 3.75996 18.56 4.25113 18.67L7.07531 19.3L8.5488 21.72C8.81485 22.15 9.35717 22.33 9.8381 22.13L12.4883 21L15.1386 22.11C15.6093 22.31 16.1618 22.13 16.4176 21.7L17.8911 19.27L20.7153 18.64C21.2167 18.53 21.5544 18.07 21.5032 17.57L21.2372 14.76L23.1404 12.64C23.4883 12.28 23.4883 11.72 23.1507 11.34ZM13.5116 17H11.4651V15H13.5116V17ZM12.4883 13C11.9255 13 11.4651 12.55 11.4651 12V8.00001C11.4651 7.45001 11.9255 7.00001 12.4883 7.00001C13.0511 7.00001 13.5116 7.45001 13.5116 8.00001V12C13.5116 12.55 13.0511 13 12.4883 13Z" />
</svg>
