<svg width="15" height="15" viewBox="0 0 15 15" fill="none" xmlns="http://www.w3.org/2000/svg">
<path d="M6.83301 6.83496V10.1644C6.83301 10.5337 7.12892 10.833 7.49967 10.833C7.86786 10.833 8.16634 10.5411 8.16634 10.1644V6.83496C8.16634 6.46569 7.87043 6.16634 7.49967 6.16634C7.13148 6.16634 6.83301 6.45826 6.83301 6.83496Z" fill="#031657"/>
<path d="M8.16634 4.83301C8.16634 4.46482 7.86786 4.16634 7.49967 4.16634C7.13148 4.16634 6.83301 4.46482 6.83301 4.83301C6.83301 5.2012 7.13148 5.49967 7.49967 5.49967C7.86786 5.49967 8.16634 5.2012 8.16634 4.83301Z" fill="#031657"/>
<path fill-rule="evenodd" clip-rule="evenodd" d="M14.1663 7.49967C14.1663 11.1816 11.1816 14.1663 7.49967 14.1663C3.81778 14.1663 0.833008 11.1816 0.833008 7.49967C0.833008 3.81778 3.81778 0.833008 7.49967 0.833008C11.1816 0.833008 14.1663 3.81778 14.1663 7.49967ZM12.833 7.49967C12.833 10.4452 10.4452 12.833 7.49967 12.833C4.55416 12.833 2.16634 10.4452 2.16634 7.49967C2.16634 4.55416 4.55416 2.16634 7.49967 2.16634C10.4452 2.16634 12.833 4.55416 12.833 7.49967Z" fill="#031657"/>
</svg>
