<svg width="25" height="24" viewBox="0 0 25 24" xmlns="http://www.w3.org/2000/svg">
<path d="M12.4884 2C6.83998 2 2.2558 6.48 2.2558 12C2.2558 17.52 6.83998 22 12.4884 22C18.1367 22 22.7209 17.52 22.7209 12C22.7209 6.48 18.1367 2 12.4884 2ZM12.4884 5C14.187 5 15.5581 6.34 15.5581 8C15.5581 9.66 14.187 11 12.4884 11C10.7898 11 9.41859 9.66 9.41859 8C9.41859 6.34 10.7898 5 12.4884 5ZM12.4884 19.2C9.93022 19.2 7.66882 17.92 6.34882 15.98C6.37952 13.99 10.4418 12.9 12.4884 12.9C14.5246 12.9 18.5972 13.99 18.6279 15.98C17.3079 17.92 15.0465 19.2 12.4884 19.2Z"/>
</svg>
