<svg width="12" height="18" viewBox="0 0 12 18" fill="none" xmlns="http://www.w3.org/2000/svg">
<path fill-rule="evenodd" clip-rule="evenodd" d="M11.8337 3.56741C11.8337 2.79541 11.208 2.16737 10.439 2.16737H8.41792C8.40875 1.88879 8.18068 1.66488 7.901 1.66488H7.08588C7.02634 1.10642 6.55436 0.669922 5.98238 0.669922H5.97483C5.40285 0.669922 4.93087 1.10642 4.87128 1.66488H4.05621C3.77655 1.66488 3.54843 1.88879 3.53927 2.16737H1.56166C0.792626 2.16737 0.166992 2.79541 0.166992 3.56741V15.9365C0.166992 16.7085 0.792626 17.3366 1.56166 17.3366H10.439C11.208 17.3366 11.8337 16.7085 11.8337 15.9365V3.56741ZM4.05621 4.01869C3.77071 4.01869 3.53839 3.78558 3.53839 3.49897V3.16581H1.53039C1.34147 3.16581 1.18777 3.3174 1.18777 3.50369V15.8856C1.18777 16.0719 1.34147 16.2235 1.53039 16.2235H10.4268C10.6157 16.2235 10.7694 16.0719 10.7694 15.8856V3.50369C10.7694 3.3174 10.6157 3.16581 10.4268 3.16581H8.41879V3.49897C8.41879 3.78558 8.18645 4.01869 7.901 4.01869H4.05621ZM3.7398 9.79233L5.1149 10.9658L8.20649 7.53918C8.42118 7.30121 8.81756 7.25933 9.09178 7.44568C9.36601 7.632 9.41425 7.97598 9.19956 8.21395L5.67268 12.123C5.44066 12.3802 5.00233 12.4049 4.73397 12.1759L2.85544 10.5727C2.60714 10.3608 2.60378 10.0143 2.84799 9.7988C3.09221 9.58331 3.49147 9.58039 3.7398 9.79233Z" fill="#031657"/>
</svg>
