<svg width="104" height="36" viewBox="0 0 104 36" fill="none" xmlns="http://www.w3.org/2000/svg">
<path d="M0 18C0 8.05887 8.05888 0 18 0H86C95.9411 0 104 8.05887 104 18V18C104 27.9411 95.9411 36 86 36H18C8.05888 36 0 27.9411 0 18V18Z" fill="white"/>
<path fill-rule="evenodd" clip-rule="evenodd" d="M27.8334 12.564C27.8334 11.792 27.2078 11.1639 26.4388 11.1639H24.4177C24.4085 10.8854 24.1804 10.6615 23.9008 10.6615H23.0856C23.0261 10.103 22.5541 9.6665 21.9821 9.6665H21.9746C21.4026 9.6665 20.9306 10.103 20.871 10.6615H20.056C19.7763 10.6615 19.5482 10.8854 19.539 11.1639H17.5614C16.7924 11.1639 16.1667 11.792 16.1667 12.564V24.9331C16.1667 25.7051 16.7924 26.3332 17.5614 26.3332H26.4388C27.2078 26.3332 27.8334 25.7051 27.8334 24.9331V12.564ZM20.056 13.0153C19.7705 13.0153 19.5381 12.7822 19.5381 12.4956V12.1624H17.5301C17.3412 12.1624 17.1875 12.314 17.1875 12.5003V24.8822C17.1875 25.0685 17.3412 25.2201 17.5301 25.2201H26.4266C26.6155 25.2201 26.7692 25.0685 26.7692 24.8822V12.5003C26.7692 12.314 26.6155 12.1624 26.4266 12.1624H24.4185V12.4956C24.4185 12.7822 24.1862 13.0153 23.9008 13.0153H20.056ZM19.7396 18.7889L21.1147 19.9624L24.2062 16.5358C24.4209 16.2978 24.8173 16.2559 25.0915 16.4423C25.3658 16.6286 25.414 16.9726 25.1993 17.2105L21.6724 21.1196C21.4404 21.3768 21.0021 21.4015 20.7337 21.1724L18.8552 19.5693C18.6069 19.3574 18.6035 19.0109 18.8477 18.7954C19.092 18.5799 19.4912 18.577 19.7396 18.7889Z" fill="#031657"/>
<path d="M40.9922 21.2734L44.3438 11.625H45.9766L41.7656 23H40.6016L40.9922 21.2734ZM37.8594 11.625L41.1797 21.2734L41.5938 23H40.4297L36.2266 11.625H37.8594ZM50.4531 23.1562C49.8646 23.1562 49.3307 23.0573 48.8516 22.8594C48.3776 22.6562 47.9688 22.3724 47.625 22.0078C47.2865 21.6432 47.026 21.2109 46.8438 20.7109C46.6615 20.2109 46.5703 19.6641 46.5703 19.0703V18.7422C46.5703 18.0547 46.6719 17.4427 46.875 16.9062C47.0781 16.3646 47.3542 15.9062 47.7031 15.5312C48.0521 15.1562 48.4479 14.8724 48.8906 14.6797C49.3333 14.487 49.7917 14.3906 50.2656 14.3906C50.8698 14.3906 51.3906 14.4948 51.8281 14.7031C52.2708 14.9115 52.6328 15.2031 52.9141 15.5781C53.1953 15.9479 53.4036 16.3854 53.5391 16.8906C53.6745 17.3906 53.7422 17.9375 53.7422 18.5312V19.1797H47.4297V18H52.2969V17.8906C52.276 17.5156 52.1979 17.151 52.0625 16.7969C51.9323 16.4427 51.724 16.151 51.4375 15.9219C51.151 15.6927 50.7604 15.5781 50.2656 15.5781C49.9375 15.5781 49.6354 15.6484 49.3594 15.7891C49.0833 15.9245 48.8464 16.1276 48.6484 16.3984C48.4505 16.6693 48.2969 17 48.1875 17.3906C48.0781 17.7812 48.0234 18.2318 48.0234 18.7422V19.0703C48.0234 19.4714 48.0781 19.849 48.1875 20.2031C48.3021 20.5521 48.4661 20.8594 48.6797 21.125C48.8984 21.3906 49.1615 21.599 49.4688 21.75C49.7812 21.901 50.1354 21.9766 50.5312 21.9766C51.0417 21.9766 51.474 21.8724 51.8281 21.6641C52.1823 21.4557 52.4922 21.1771 52.7578 20.8281L53.6328 21.5234C53.4505 21.7995 53.2188 22.0625 52.9375 22.3125C52.6562 22.5625 52.3099 22.7656 51.8984 22.9219C51.4922 23.0781 51.0104 23.1562 50.4531 23.1562ZM58.9688 14.5469V15.6562H54.3984V14.5469H58.9688ZM55.9453 12.4922H57.3906V20.9062C57.3906 21.1927 57.4349 21.4089 57.5234 21.5547C57.612 21.7005 57.7266 21.7969 57.8672 21.8438C58.0078 21.8906 58.1589 21.9141 58.3203 21.9141C58.4401 21.9141 58.5651 21.9036 58.6953 21.8828C58.8307 21.8568 58.9323 21.8359 59 21.8203L59.0078 23C58.8932 23.0365 58.7422 23.0703 58.5547 23.1016C58.3724 23.138 58.151 23.1562 57.8906 23.1562C57.5365 23.1562 57.2109 23.0859 56.9141 22.9453C56.6172 22.8047 56.3802 22.5703 56.2031 22.2422C56.0312 21.9089 55.9453 21.4609 55.9453 20.8984V12.4922ZM67.9297 23H65.5547L65.5703 21.7734H67.9297C68.7422 21.7734 69.4193 21.6042 69.9609 21.2656C70.5026 20.9219 70.9089 20.4427 71.1797 19.8281C71.4557 19.2083 71.5938 18.4844 71.5938 17.6562V16.9609C71.5938 16.3099 71.5156 15.7318 71.3594 15.2266C71.2031 14.7161 70.974 14.2865 70.6719 13.9375C70.3698 13.5833 70 13.3151 69.5625 13.1328C69.1302 12.9505 68.6328 12.8594 68.0703 12.8594H65.5078V11.625H68.0703C68.8151 11.625 69.4948 11.75 70.1094 12C70.724 12.2448 71.2526 12.6016 71.6953 13.0703C72.1432 13.5339 72.487 14.0964 72.7266 14.7578C72.9661 15.4141 73.0859 16.1536 73.0859 16.9766V17.6562C73.0859 18.4792 72.9661 19.2214 72.7266 19.8828C72.487 20.5391 72.1406 21.099 71.6875 21.5625C71.2396 22.026 70.6979 22.3828 70.0625 22.6328C69.4323 22.8776 68.7214 23 67.9297 23ZM66.3594 11.625V23H64.8516V11.625H66.3594ZM76.7031 14.5469V23H75.25V14.5469H76.7031ZM75.1406 12.3047C75.1406 12.0703 75.2109 11.8724 75.3516 11.7109C75.4974 11.5495 75.7109 11.4688 75.9922 11.4688C76.2682 11.4688 76.4792 11.5495 76.625 11.7109C76.776 11.8724 76.8516 12.0703 76.8516 12.3047C76.8516 12.5286 76.776 12.7214 76.625 12.8828C76.4792 13.0391 76.2682 13.1172 75.9922 13.1172C75.7109 13.1172 75.4974 13.0391 75.3516 12.8828C75.2109 12.7214 75.1406 12.5286 75.1406 12.3047ZM82.5312 23.1562C81.9427 23.1562 81.4089 23.0573 80.9297 22.8594C80.4557 22.6562 80.0469 22.3724 79.7031 22.0078C79.3646 21.6432 79.1042 21.2109 78.9219 20.7109C78.7396 20.2109 78.6484 19.6641 78.6484 19.0703V18.7422C78.6484 18.0547 78.75 17.4427 78.9531 16.9062C79.1562 16.3646 79.4323 15.9062 79.7812 15.5312C80.1302 15.1562 80.526 14.8724 80.9688 14.6797C81.4115 14.487 81.8698 14.3906 82.3438 14.3906C82.9479 14.3906 83.4688 14.4948 83.9062 14.7031C84.349 14.9115 84.7109 15.2031 84.9922 15.5781C85.2734 15.9479 85.4818 16.3854 85.6172 16.8906C85.7526 17.3906 85.8203 17.9375 85.8203 18.5312V19.1797H79.5078V18H84.375V17.8906C84.3542 17.5156 84.276 17.151 84.1406 16.7969C84.0104 16.4427 83.8021 16.151 83.5156 15.9219C83.2292 15.6927 82.8385 15.5781 82.3438 15.5781C82.0156 15.5781 81.7135 15.6484 81.4375 15.7891C81.1615 15.9245 80.9245 16.1276 80.7266 16.3984C80.5286 16.6693 80.375 17 80.2656 17.3906C80.1562 17.7812 80.1016 18.2318 80.1016 18.7422V19.0703C80.1016 19.4714 80.1562 19.849 80.2656 20.2031C80.3802 20.5521 80.5443 20.8594 80.7578 21.125C80.9766 21.3906 81.2396 21.599 81.5469 21.75C81.8594 21.901 82.2135 21.9766 82.6094 21.9766C83.1198 21.9766 83.5521 21.8724 83.9062 21.6641C84.2604 21.4557 84.5703 21.1771 84.8359 20.8281L85.7109 21.5234C85.5286 21.7995 85.2969 22.0625 85.0156 22.3125C84.7344 22.5625 84.388 22.7656 83.9766 22.9219C83.5703 23.0781 83.0885 23.1562 82.5312 23.1562ZM91.0469 14.5469V15.6562H86.4766V14.5469H91.0469ZM88.0234 12.4922H89.4688V20.9062C89.4688 21.1927 89.513 21.4089 89.6016 21.5547C89.6901 21.7005 89.8047 21.7969 89.9453 21.8438C90.0859 21.8906 90.237 21.9141 90.3984 21.9141C90.5182 21.9141 90.6432 21.9036 90.7734 21.8828C90.9089 21.8568 91.0104 21.8359 91.0781 21.8203L91.0859 23C90.9714 23.0365 90.8203 23.0703 90.6328 23.1016C90.4505 23.138 90.2292 23.1562 89.9688 23.1562C89.6146 23.1562 89.2891 23.0859 88.9922 22.9453C88.6953 22.8047 88.4583 22.5703 88.2812 22.2422C88.1094 21.9089 88.0234 21.4609 88.0234 20.8984V12.4922Z" fill="#031657"/>
<path d="M18 1H86V-1H18V1ZM86 35H18V37H86V35ZM18 35C8.61116 35 1 27.3888 1 18H-1C-1 28.4934 7.50659 37 18 37V35ZM103 18C103 27.3888 95.3888 35 86 35V37C96.4934 37 105 28.4934 105 18H103ZM86 1C95.3888 1 103 8.61116 103 18H105C105 7.50659 96.4934 -1 86 -1V1ZM18 -1C7.50659 -1 -1 7.50659 -1 18H1C1 8.61116 8.61116 1 18 1V-1Z" fill="#CCCCCC"/>
</svg>
