<svg xmlns="http://www.w3.org/2000/svg" viewBox="0 0 24 24" data-testid="visa-icon">
  <title>Visa</title>
  <desc>Visa credit card</desc>
  <g fill="none" fill-rule="evenodd">
    <path d="M0 0h24v24H0z" />
    <path
      fill="#F5F5F5"
      d="M2 6.8c0-.44.36-.8.8-.8h18.4c.44 0 .8.36.8.8v10.4a.8.8 0 01-.8.8H2.8a.8.8 0 01-.8-.8V6.8z"
    />
    <g fill="#002295">
      <path
        d="M9.94 14.3l.69-4.23h1.09l-.69 4.23H9.94zM15 10.18l-.15.91-.1-.04c-.2-.09-.46-.17-.81-.17-.43 0-.63.2-.63.37 0 .2.23.33.62.52.62.3.91.67.91 1.15 0 .88-.75 1.45-1.9 1.45-.49 0-.96-.11-1.21-.23l.15-.95.14.07c.36.16.6.22 1.03.22.31 0 .65-.13.65-.4 0-.2-.14-.33-.57-.53-.4-.2-.96-.55-.95-1.15 0-.83.76-1.4 1.84-1.4.42 0 .76.1.98.18zm-5.96-.1h1.16L8.47 14.3H7.3l-.97-3.7c.7.37 1.31 1.1 1.5 1.78l.12.58 1.07-2.88zm8.76 0l.88 4.23h-1.01l-.14-.64h-1.4l-.22.64h-1.15l1.62-3.88c.12-.28.31-.35.57-.35h.85zm-1.35 2.72h.9l-.25-1.22-.07-.36-.15.4-.43 1.18z"
      />
      <path d="M6.97 10.07H5.21l-.01.1a3.66 3.66 0 012.65 2.2l-.38-1.94c-.07-.27-.26-.35-.5-.36" />
    </g>
  </g>
</svg>
